<svg width="666" height="192" viewBox="0 0 666 192" fill="none" xmlns="http://www.w3.org/2000/svg">
<path d="M210 110.601C210 149.139 116.494 151 75.0471 151C33.5997 151 0 119.758 0 81.2197C0 42.6811 16.4576 4.09406 60.5643 12.0515C91.5047 35.9237 169.843 56.1232 210 110.601Z" fill="#E2D1C1"/>
<path d="M101.023 27.7949V115.951H82.9199V27.7949H101.023ZM189.785 27.7949V115.951H171.621L136.201 56.8574V115.951H118.037V27.7949H136.201L171.682 86.9492V27.7949H189.785ZM251.482 92.8828C251.482 91.3086 251.24 89.8958 250.756 88.6445C250.312 87.3529 249.464 86.1823 248.213 85.1328C246.962 84.043 245.206 82.9733 242.945 81.9238C240.685 80.8743 237.758 79.7845 234.166 78.6543C230.17 77.3626 226.376 75.9095 222.783 74.2949C219.231 72.6803 216.083 70.8034 213.338 68.6641C210.633 66.4844 208.494 63.9616 206.92 61.0957C205.386 58.2298 204.619 54.8997 204.619 51.1055C204.619 47.4323 205.426 44.1022 207.041 41.1152C208.656 38.0879 210.916 35.5046 213.822 33.3652C216.729 31.1855 220.16 29.5104 224.115 28.3398C228.111 27.1693 232.491 26.584 237.254 26.584C243.753 26.584 249.424 27.7546 254.268 30.0957C259.111 32.4368 262.865 35.6458 265.529 39.7227C268.234 43.7995 269.586 48.4616 269.586 53.709H251.543C251.543 51.1257 250.998 48.8652 249.908 46.9277C248.859 44.9499 247.244 43.3958 245.064 42.2656C242.925 41.1354 240.221 40.5703 236.951 40.5703C233.803 40.5703 231.179 41.0547 229.08 42.0234C226.981 42.9518 225.407 44.2233 224.357 45.8379C223.308 47.4121 222.783 49.1882 222.783 51.166C222.783 52.6595 223.146 54.0117 223.873 55.2227C224.64 56.4336 225.77 57.5638 227.264 58.6133C228.757 59.6628 230.594 60.6517 232.773 61.5801C234.953 62.5085 237.476 63.4167 240.342 64.3047C245.145 65.7578 249.363 67.3926 252.996 69.209C256.669 71.0254 259.737 73.0638 262.199 75.3242C264.661 77.5846 266.518 80.1478 267.77 83.0137C269.021 85.8796 269.646 89.1289 269.646 92.7617C269.646 96.5964 268.9 100.027 267.406 103.055C265.913 106.082 263.753 108.645 260.928 110.744C258.102 112.843 254.732 114.438 250.816 115.527C246.901 116.617 242.521 117.162 237.678 117.162C233.318 117.162 229.02 116.597 224.781 115.467C220.543 114.296 216.688 112.54 213.217 110.199C209.786 107.858 207.041 104.871 204.982 101.238C202.924 97.6055 201.895 93.3066 201.895 88.3418H220.119C220.119 91.0866 220.543 93.4076 221.391 95.3047C222.238 97.2018 223.429 98.7357 224.963 99.9062C226.537 101.077 228.394 101.924 230.533 102.449C232.713 102.974 235.094 103.236 237.678 103.236C240.826 103.236 243.41 102.792 245.428 101.904C247.486 101.016 249 99.7852 249.969 98.2109C250.978 96.6367 251.482 94.8607 251.482 92.8828ZM301.312 27.7949V115.951H283.209V27.7949H301.312ZM388.197 69.875V104.811C386.825 106.465 384.706 108.262 381.84 110.199C378.974 112.096 375.281 113.731 370.76 115.104C366.239 116.476 360.77 117.162 354.352 117.162C348.66 117.162 343.473 116.234 338.791 114.377C334.109 112.48 330.072 109.715 326.682 106.082C323.331 102.449 320.748 98.0091 318.932 92.7617C317.115 87.474 316.207 81.4395 316.207 74.6582V69.1484C316.207 62.3672 317.075 56.3327 318.811 51.0449C320.587 45.7572 323.109 41.2969 326.379 37.6641C329.648 34.0312 333.544 31.2663 338.064 29.3691C342.585 27.472 347.611 26.5234 353.141 26.5234C360.81 26.5234 367.107 27.7747 372.031 30.2773C376.956 32.7396 380.71 36.1706 383.293 40.5703C385.917 44.9297 387.531 49.9349 388.137 55.5859H370.518C370.074 52.599 369.226 49.9954 367.975 47.7754C366.723 45.5553 364.927 43.8197 362.586 42.5684C360.285 41.3171 357.298 40.6914 353.625 40.6914C350.598 40.6914 347.893 41.3171 345.512 42.5684C343.171 43.7793 341.193 45.5755 339.578 47.957C337.964 50.3385 336.732 53.2852 335.885 56.7969C335.037 60.3086 334.613 64.3854 334.613 69.0273V74.6582C334.613 79.2598 335.057 83.3366 335.945 86.8887C336.833 90.4004 338.145 93.3672 339.881 95.7891C341.657 98.1706 343.837 99.9668 346.42 101.178C349.003 102.389 352.01 102.994 355.441 102.994C358.307 102.994 360.689 102.752 362.586 102.268C364.523 101.783 366.077 101.198 367.248 100.512C368.459 99.7852 369.387 99.099 370.033 98.4531V82.832H353.443V69.875H388.197ZM461.641 63.6992V77.8672H415.625V63.6992H461.641ZM421.014 27.7949V115.951H402.85V27.7949H421.014ZM474.598 27.7949V115.951H456.494V27.7949H474.598ZM528 27.7949V115.951H509.896V27.7949H528ZM555.125 27.7949V42.0234H483.195V27.7949H555.125ZM610.404 92.8828C610.404 91.3086 610.162 89.8958 609.678 88.6445C609.234 87.3529 608.386 86.1823 607.135 85.1328C605.883 84.043 604.128 82.9733 601.867 81.9238C599.607 80.8743 596.68 79.7845 593.088 78.6543C589.092 77.3626 585.298 75.9095 581.705 74.2949C578.153 72.6803 575.005 70.8034 572.26 68.6641C569.555 66.4844 567.416 63.9616 565.842 61.0957C564.308 58.2298 563.541 54.8997 563.541 51.1055C563.541 47.4323 564.348 44.1022 565.963 41.1152C567.577 38.0879 569.838 35.5046 572.744 33.3652C575.65 31.1855 579.081 29.5104 583.037 28.3398C587.033 27.1693 591.413 26.584 596.176 26.584C602.674 26.584 608.346 27.7546 613.189 30.0957C618.033 32.4368 621.787 35.6458 624.451 39.7227C627.156 43.7995 628.508 48.4616 628.508 53.709H610.465C610.465 51.1257 609.92 48.8652 608.83 46.9277C607.781 44.9499 606.166 43.3958 603.986 42.2656C601.847 41.1354 599.143 40.5703 595.873 40.5703C592.725 40.5703 590.101 41.0547 588.002 42.0234C585.903 42.9518 584.329 44.2233 583.279 45.8379C582.23 47.4121 581.705 49.1882 581.705 51.166C581.705 52.6595 582.068 54.0117 582.795 55.2227C583.562 56.4336 584.692 57.5638 586.186 58.6133C587.679 59.6628 589.516 60.6517 591.695 61.5801C593.875 62.5085 596.398 63.4167 599.264 64.3047C604.067 65.7578 608.285 67.3926 611.918 69.209C615.591 71.0254 618.659 73.0638 621.121 75.3242C623.583 77.5846 625.44 80.1478 626.691 83.0137C627.943 85.8796 628.568 89.1289 628.568 92.7617C628.568 96.5964 627.822 100.027 626.328 103.055C624.835 106.082 622.675 108.645 619.85 110.744C617.024 112.843 613.654 114.438 609.738 115.527C605.823 116.617 601.443 117.162 596.6 117.162C592.24 117.162 587.941 116.597 583.703 115.467C579.465 114.296 575.61 112.54 572.139 110.199C568.708 107.858 565.963 104.871 563.904 101.238C561.846 97.6055 560.816 93.3066 560.816 88.3418H579.041C579.041 91.0866 579.465 93.4076 580.312 95.3047C581.16 97.2018 582.351 98.7357 583.885 99.9062C585.459 101.077 587.316 101.924 589.455 102.449C591.635 102.974 594.016 103.236 596.6 103.236C599.748 103.236 602.331 102.792 604.35 101.904C606.408 101.016 607.922 99.7852 608.891 98.2109C609.9 96.6367 610.404 94.8607 610.404 92.8828Z" fill="#424530"/>
<path d="M79.8265 176.932V127.477H109.673V132.79H85.8152V149.5H108.128V154.812H85.8152V171.619H110.059V176.932H79.8265ZM145.967 148.148L140.848 149.596C140.526 148.743 140.051 147.914 139.423 147.109C138.811 146.288 137.974 145.612 136.912 145.081C135.849 144.55 134.489 144.284 132.831 144.284C130.561 144.284 128.669 144.807 127.156 145.854C125.659 146.884 124.91 148.196 124.91 149.79C124.91 151.206 125.425 152.325 126.456 153.146C127.486 153.967 129.096 154.651 131.285 155.199L136.791 156.551C140.107 157.356 142.578 158.587 144.204 160.246C145.83 161.888 146.643 164.005 146.643 166.596C146.643 168.721 146.032 170.621 144.808 172.295C143.601 173.97 141.91 175.29 139.737 176.256C137.564 177.221 135.036 177.704 132.155 177.704C128.372 177.704 125.24 176.883 122.761 175.241C120.282 173.599 118.712 171.201 118.052 168.045L123.461 166.693C123.977 168.689 124.951 170.186 126.383 171.184C127.832 172.183 129.724 172.682 132.058 172.682C134.714 172.682 136.823 172.118 138.385 170.991C139.962 169.848 140.751 168.48 140.751 166.886C140.751 165.598 140.3 164.52 139.399 163.65C138.497 162.765 137.113 162.105 135.246 161.67L129.064 160.221C125.667 159.416 123.172 158.169 121.578 156.479C120 154.772 119.211 152.639 119.211 150.079C119.211 147.987 119.799 146.135 120.974 144.525C122.166 142.916 123.783 141.652 125.828 140.734C127.889 139.817 130.223 139.358 132.831 139.358C136.501 139.358 139.383 140.163 141.476 141.773C143.585 143.382 145.082 145.507 145.967 148.148ZM171.352 139.841V144.67H152.131V139.841H171.352ZM157.733 130.954H163.432V166.307C163.432 167.916 163.665 169.124 164.132 169.929C164.615 170.718 165.227 171.249 165.968 171.523C166.724 171.78 167.521 171.909 168.358 171.909C168.986 171.909 169.501 171.877 169.904 171.812C170.306 171.732 170.628 171.667 170.869 171.619L172.029 176.738C171.642 176.883 171.103 177.028 170.411 177.173C169.718 177.334 168.841 177.415 167.779 177.415C166.169 177.415 164.591 177.068 163.046 176.376C161.516 175.684 160.244 174.63 159.23 173.213C158.232 171.796 157.733 170.009 157.733 167.852V130.954ZM190.84 177.801C188.489 177.801 186.356 177.358 184.441 176.473C182.525 175.571 181.003 174.275 179.877 172.585C178.75 170.879 178.186 168.818 178.186 166.403C178.186 164.278 178.605 162.556 179.442 161.236C180.279 159.899 181.398 158.853 182.798 158.096C184.199 157.34 185.744 156.776 187.435 156.406C189.141 156.02 190.856 155.714 192.578 155.488C194.832 155.199 196.659 154.981 198.06 154.836C199.477 154.675 200.507 154.41 201.151 154.04C201.811 153.669 202.141 153.025 202.141 152.108V151.915C202.141 149.532 201.489 147.681 200.185 146.361C198.897 145.041 196.941 144.381 194.317 144.381C191.596 144.381 189.463 144.976 187.918 146.167C186.372 147.359 185.286 148.631 184.658 149.983L179.249 148.051C180.215 145.797 181.503 144.042 183.112 142.787C184.738 141.515 186.509 140.63 188.425 140.131C190.357 139.615 192.256 139.358 194.124 139.358C195.315 139.358 196.683 139.503 198.229 139.792C199.79 140.066 201.296 140.638 202.744 141.507C204.209 142.376 205.425 143.688 206.391 145.443C207.357 147.198 207.84 149.548 207.84 152.494V176.932H202.141V171.909H201.851C201.465 172.714 200.821 173.575 199.919 174.493C199.018 175.41 197.818 176.191 196.321 176.835C194.824 177.479 192.997 177.801 190.84 177.801ZM191.709 172.682C193.963 172.682 195.862 172.239 197.408 171.354C198.969 170.468 200.145 169.325 200.933 167.925C201.738 166.524 202.141 165.051 202.141 163.506V158.29C201.899 158.579 201.368 158.845 200.547 159.086C199.742 159.312 198.808 159.513 197.746 159.69C196.7 159.851 195.677 159.996 194.679 160.125C193.697 160.238 192.9 160.334 192.289 160.415C190.807 160.608 189.423 160.922 188.135 161.356C186.863 161.775 185.833 162.411 185.044 163.264C184.271 164.101 183.885 165.244 183.885 166.693C183.885 168.673 184.618 170.17 186.083 171.184C187.564 172.183 189.439 172.682 191.709 172.682ZM234.372 139.841V144.67H215.15V139.841H234.372ZM220.753 130.954H226.452V166.307C226.452 167.916 226.685 169.124 227.152 169.929C227.635 170.718 228.247 171.249 228.987 171.523C229.744 171.78 230.541 171.909 231.378 171.909C232.006 171.909 232.521 171.877 232.923 171.812C233.326 171.732 233.648 171.667 233.889 171.619L235.048 176.738C234.662 176.883 234.122 177.028 233.43 177.173C232.738 177.334 231.861 177.415 230.798 177.415C229.188 177.415 227.611 177.068 226.065 176.376C224.536 175.684 223.264 174.63 222.25 173.213C221.252 171.796 220.753 170.009 220.753 167.852V130.954ZM258.097 177.704C254.523 177.704 251.44 176.916 248.849 175.338C246.273 173.744 244.285 171.523 242.884 168.673C241.5 165.808 240.807 162.475 240.807 158.676C240.807 154.877 241.5 151.528 242.884 148.631C244.285 145.717 246.233 143.447 248.728 141.821C251.239 140.179 254.169 139.358 257.518 139.358C259.449 139.358 261.357 139.68 263.241 140.324C265.124 140.968 266.839 142.014 268.384 143.463C269.93 144.896 271.161 146.795 272.079 149.162C272.996 151.528 273.455 154.442 273.455 157.903V160.318H244.864V155.392H267.66C267.66 153.299 267.241 151.432 266.404 149.79C265.583 148.148 264.408 146.852 262.878 145.902C261.365 144.952 259.578 144.477 257.518 144.477C255.248 144.477 253.284 145.041 251.626 146.167C249.983 147.278 248.72 148.727 247.834 150.514C246.949 152.301 246.506 154.217 246.506 156.261V159.545C246.506 162.346 246.989 164.721 247.955 166.669C248.937 168.601 250.297 170.074 252.036 171.088C253.775 172.086 255.795 172.585 258.097 172.585C259.594 172.585 260.947 172.376 262.154 171.957C263.377 171.523 264.432 170.879 265.317 170.025C266.203 169.156 266.887 168.077 267.37 166.79L272.876 168.335C272.296 170.202 271.322 171.845 269.954 173.261C268.585 174.662 266.895 175.756 264.883 176.545C262.87 177.318 260.608 177.704 258.097 177.704ZM312.164 177.801C309.814 177.801 307.68 177.358 305.765 176.473C303.849 175.571 302.328 174.275 301.201 172.585C300.074 170.879 299.51 168.818 299.51 166.403C299.51 164.278 299.929 162.556 300.766 161.236C301.603 159.899 302.722 158.853 304.123 158.096C305.523 157.34 307.069 156.776 308.759 156.406C310.465 156.02 312.18 155.714 313.903 155.488C316.156 155.199 317.983 154.981 319.384 154.836C320.801 154.675 321.831 154.41 322.475 154.04C323.135 153.669 323.465 153.025 323.465 152.108V151.915C323.465 149.532 322.813 147.681 321.509 146.361C320.221 145.041 318.265 144.381 315.641 144.381C312.921 144.381 310.787 144.976 309.242 146.167C307.697 147.359 306.61 148.631 305.982 149.983L300.573 148.051C301.539 145.797 302.827 144.042 304.437 142.787C306.063 141.515 307.833 140.63 309.749 140.131C311.681 139.615 313.581 139.358 315.448 139.358C316.639 139.358 318.008 139.503 319.553 139.792C321.115 140.066 322.62 140.638 324.069 141.507C325.534 142.376 326.749 143.688 327.715 145.443C328.681 147.198 329.164 149.548 329.164 152.494V176.932H323.465V171.909H323.175C322.789 172.714 322.145 173.575 321.243 174.493C320.342 175.41 319.143 176.191 317.645 176.835C316.148 177.479 314.321 177.801 312.164 177.801ZM313.033 172.682C315.287 172.682 317.187 172.239 318.732 171.354C320.294 170.468 321.469 169.325 322.258 167.925C323.063 166.524 323.465 165.051 323.465 163.506V158.29C323.224 158.579 322.692 158.845 321.871 159.086C321.066 159.312 320.133 159.513 319.07 159.69C318.024 159.851 317.001 159.996 316.003 160.125C315.021 160.238 314.224 160.334 313.613 160.415C312.132 160.608 310.747 160.922 309.459 161.356C308.188 161.775 307.157 162.411 306.368 163.264C305.596 164.101 305.209 165.244 305.209 166.693C305.209 168.673 305.942 170.17 307.407 171.184C308.888 172.183 310.763 172.682 313.033 172.682ZM354.537 191.613C351.784 191.613 349.418 191.259 347.438 190.551C345.458 189.859 343.807 188.941 342.487 187.798C341.183 186.671 340.145 185.464 339.372 184.176L343.912 180.988C344.427 181.665 345.079 182.437 345.868 183.307C346.657 184.192 347.736 184.957 349.104 185.601C350.488 186.261 352.299 186.591 354.537 186.591C357.531 186.591 360.003 185.866 361.95 184.417C363.898 182.969 364.872 180.699 364.872 177.608V170.074H364.389C363.971 170.75 363.375 171.587 362.602 172.585C361.846 173.567 360.751 174.444 359.318 175.217C357.902 175.974 355.986 176.352 353.571 176.352C350.577 176.352 347.888 175.644 345.506 174.227C343.139 172.81 341.264 170.75 339.879 168.045C338.511 165.341 337.827 162.057 337.827 158.193C337.827 154.394 338.495 151.086 339.831 148.268C341.167 145.435 343.027 143.246 345.409 141.7C347.792 140.139 350.545 139.358 353.668 139.358C356.083 139.358 357.998 139.76 359.415 140.565C360.848 141.354 361.942 142.256 362.699 143.27C363.472 144.268 364.067 145.089 364.486 145.733H365.066V139.841H370.571V177.994C370.571 181.182 369.847 183.773 368.398 185.77C366.965 187.782 365.033 189.255 362.602 190.189C360.188 191.139 357.499 191.613 354.537 191.613ZM354.344 171.233C356.63 171.233 358.562 170.71 360.139 169.663C361.717 168.617 362.916 167.112 363.737 165.148C364.558 163.184 364.969 160.833 364.969 158.096C364.969 155.424 364.566 153.066 363.762 151.021C362.957 148.977 361.765 147.375 360.188 146.216C358.61 145.057 356.662 144.477 354.344 144.477C351.929 144.477 349.917 145.089 348.307 146.312C346.713 147.536 345.514 149.178 344.709 151.238C343.92 153.299 343.526 155.585 343.526 158.096C343.526 160.672 343.928 162.95 344.733 164.93C345.554 166.894 346.762 168.44 348.355 169.567C349.965 170.677 351.961 171.233 354.344 171.233ZM396.554 177.704C392.98 177.704 389.897 176.916 387.306 175.338C384.73 173.744 382.742 171.523 381.341 168.673C379.957 165.808 379.264 162.475 379.264 158.676C379.264 154.877 379.957 151.528 381.341 148.631C382.742 145.717 384.69 143.447 387.185 141.821C389.696 140.179 392.626 139.358 395.975 139.358C397.906 139.358 399.814 139.68 401.698 140.324C403.581 140.968 405.296 142.014 406.841 143.463C408.387 144.896 409.618 146.795 410.536 149.162C411.453 151.528 411.912 154.442 411.912 157.903V160.318H383.321V155.392H406.117C406.117 153.299 405.698 151.432 404.861 149.79C404.04 148.148 402.865 146.852 401.335 145.902C399.822 144.952 398.035 144.477 395.975 144.477C393.705 144.477 391.741 145.041 390.083 146.167C388.441 147.278 387.177 148.727 386.291 150.514C385.406 152.301 384.963 154.217 384.963 156.261V159.545C384.963 162.346 385.446 164.721 386.412 166.669C387.394 168.601 388.754 170.074 390.493 171.088C392.232 172.086 394.252 172.585 396.554 172.585C398.051 172.585 399.404 172.376 400.611 171.957C401.834 171.523 402.889 170.879 403.774 170.025C404.66 169.156 405.344 168.077 405.827 166.79L411.333 168.335C410.753 170.202 409.779 171.845 408.411 173.261C407.042 174.662 405.352 175.756 403.34 176.545C401.327 177.318 399.066 177.704 396.554 177.704ZM426.28 154.619V176.932H420.581V139.841H426.087V145.636H426.57C427.439 143.753 428.759 142.239 430.53 141.096C432.301 139.937 434.587 139.358 437.388 139.358C439.899 139.358 442.097 139.873 443.98 140.903C445.864 141.917 447.329 143.463 448.375 145.54C449.422 147.6 449.945 150.208 449.945 153.363V176.932H444.246V153.75C444.246 150.836 443.489 148.566 441.976 146.94C440.463 145.298 438.386 144.477 435.746 144.477C433.927 144.477 432.301 144.872 430.868 145.66C429.451 146.449 428.333 147.6 427.512 149.113C426.691 150.627 426.28 152.462 426.28 154.619ZM475.427 177.704C471.949 177.704 468.955 176.883 466.444 175.241C463.932 173.599 462.001 171.337 460.648 168.456C459.296 165.574 458.62 162.282 458.62 158.579C458.62 154.812 459.312 151.488 460.697 148.606C462.097 145.709 464.045 143.447 466.54 141.821C469.052 140.179 471.982 139.358 475.33 139.358C477.938 139.358 480.288 139.841 482.381 140.807C484.474 141.773 486.189 143.125 487.525 144.863C488.861 146.602 489.69 148.631 490.012 150.949H484.313C483.878 149.258 482.912 147.761 481.415 146.457C479.934 145.137 477.938 144.477 475.427 144.477C473.205 144.477 471.257 145.057 469.583 146.216C467.925 147.359 466.629 148.977 465.695 151.069C464.778 153.146 464.319 155.585 464.319 158.386C464.319 161.252 464.769 163.747 465.671 165.872C466.589 167.997 467.876 169.647 469.535 170.822C471.209 171.997 473.173 172.585 475.427 172.585C476.908 172.585 478.252 172.327 479.459 171.812C480.667 171.297 481.689 170.557 482.526 169.591C483.363 168.625 483.959 167.466 484.313 166.113H490.012C489.69 168.303 488.893 170.275 487.621 172.03C486.366 173.768 484.699 175.153 482.623 176.183C480.562 177.197 478.163 177.704 475.427 177.704ZM502.013 190.841C501.047 190.841 500.186 190.76 499.43 190.599C498.673 190.454 498.15 190.309 497.86 190.165L499.309 185.142C500.693 185.496 501.917 185.625 502.979 185.528C504.042 185.432 504.983 184.957 505.805 184.104C506.642 183.266 507.406 181.906 508.099 180.023L509.161 177.125L495.445 139.841H501.627L511.866 169.398H512.252L522.491 139.841H528.672L512.928 182.341C512.22 184.256 511.342 185.842 510.296 187.098C509.25 188.37 508.034 189.311 506.65 189.923C505.281 190.535 503.736 190.841 502.013 190.841Z" fill="#424530"/>
</svg>
