<svg width="306" height="125" viewBox="0 0 306 125" fill="none" xmlns="http://www.w3.org/2000/svg">
<path d="M13.8864 63.4545V110H4.04545V63.4545H13.8864ZM60.9148 63.4545V110H52.4148L32.1648 80.7045H31.8239V110H21.983V63.4545H30.6193L50.7102 92.7273H51.1193V63.4545H60.9148ZM94.2955 76.8409C94.1136 75.0076 93.3333 73.5833 91.9545 72.5682C90.5758 71.553 88.7045 71.0455 86.3409 71.0455C84.7348 71.0455 83.3788 71.2727 82.2727 71.7273C81.1667 72.1667 80.3182 72.7803 79.7273 73.5682C79.1515 74.3561 78.8636 75.25 78.8636 76.25C78.8333 77.0833 79.0076 77.8106 79.3864 78.4318C79.7803 79.053 80.3182 79.5909 81 80.0455C81.6818 80.4848 82.4697 80.8712 83.3636 81.2045C84.2576 81.5227 85.2121 81.7955 86.2273 82.0227L90.4091 83.0227C92.4394 83.4773 94.303 84.0833 96 84.8409C97.697 85.5985 99.1667 86.5303 100.409 87.6364C101.652 88.7424 102.614 90.0455 103.295 91.5455C103.992 93.0455 104.348 94.7652 104.364 96.7045C104.348 99.553 103.621 102.023 102.182 104.114C100.758 106.189 98.697 107.803 96 108.955C93.3182 110.091 90.0833 110.659 86.2955 110.659C82.5379 110.659 79.2652 110.083 76.4773 108.932C73.7045 107.78 71.5379 106.076 69.9773 103.818C68.4318 101.545 67.6212 98.7348 67.5455 95.3864H77.0682C77.1742 96.947 77.6212 98.25 78.4091 99.2955C79.2121 100.326 80.2803 101.106 81.6136 101.636C82.9621 102.152 84.4848 102.409 86.1818 102.409C87.8485 102.409 89.2955 102.167 90.5227 101.682C91.7652 101.197 92.7273 100.523 93.4091 99.6591C94.0909 98.7955 94.4318 97.803 94.4318 96.6818C94.4318 95.6364 94.1212 94.7576 93.5 94.0455C92.8939 93.3333 92 92.7273 90.8182 92.2273C89.6515 91.7273 88.2197 91.2727 86.5227 90.8636L81.4545 89.5909C77.5303 88.6364 74.4318 87.1439 72.1591 85.1136C69.8864 83.0833 68.7576 80.3485 68.7727 76.9091C68.7576 74.0909 69.5076 71.6288 71.0227 69.5227C72.553 67.4167 74.6515 65.7727 77.3182 64.5909C79.9848 63.4091 83.0152 62.8182 86.4091 62.8182C89.8636 62.8182 92.8788 63.4091 95.4545 64.5909C98.0455 65.7727 100.061 67.4167 101.5 69.5227C102.939 71.6288 103.682 74.0682 103.727 76.8409H94.2955ZM120.824 63.4545V110H110.983V63.4545H120.824ZM159.784 78.5C159.466 77.3939 159.019 76.4167 158.443 75.5682C157.867 74.7045 157.163 73.9773 156.33 73.3864C155.511 72.7803 154.572 72.3182 153.511 72C152.466 71.6818 151.307 71.5227 150.034 71.5227C147.655 71.5227 145.564 72.1136 143.761 73.2955C141.973 74.4773 140.58 76.197 139.58 78.4545C138.58 80.697 138.08 83.4394 138.08 86.6818C138.08 89.9242 138.572 92.6818 139.557 94.9545C140.542 97.2273 141.936 98.9621 143.739 100.159C145.542 101.341 147.67 101.932 150.125 101.932C152.352 101.932 154.254 101.538 155.83 100.75C157.42 99.947 158.633 98.8182 159.466 97.3636C160.314 95.9091 160.739 94.1894 160.739 92.2045L162.739 92.5H150.739V85.0909H170.216V90.9545C170.216 95.0455 169.352 98.5606 167.625 101.5C165.898 104.424 163.519 106.682 160.489 108.273C157.458 109.848 153.989 110.636 150.08 110.636C145.716 110.636 141.883 109.674 138.58 107.75C135.277 105.811 132.701 103.061 130.852 99.5C129.019 95.9242 128.102 91.6818 128.102 86.7727C128.102 83 128.648 79.6364 129.739 76.6818C130.845 73.7121 132.39 71.197 134.375 69.1364C136.36 67.0758 138.67 65.5076 141.307 64.4318C143.943 63.3561 146.799 62.8182 149.875 62.8182C152.511 62.8182 154.966 63.2045 157.239 63.9773C159.511 64.7348 161.527 65.8106 163.284 67.2045C165.057 68.5985 166.504 70.2576 167.625 72.1818C168.746 74.0909 169.466 76.197 169.784 78.5H159.784ZM177.608 110V63.4545H187.449V82.6591H207.426V63.4545H217.244V110H207.426V90.7727H187.449V110H177.608ZM223.585 71.5682V63.4545H261.812V71.5682H247.562V110H237.835V71.5682H223.585ZM293.358 76.8409C293.176 75.0076 292.396 73.5833 291.017 72.5682C289.638 71.553 287.767 71.0455 285.403 71.0455C283.797 71.0455 282.441 71.2727 281.335 71.7273C280.229 72.1667 279.381 72.7803 278.79 73.5682C278.214 74.3561 277.926 75.25 277.926 76.25C277.896 77.0833 278.07 77.8106 278.449 78.4318C278.843 79.053 279.381 79.5909 280.062 80.0455C280.744 80.4848 281.532 80.8712 282.426 81.2045C283.32 81.5227 284.275 81.7955 285.29 82.0227L289.472 83.0227C291.502 83.4773 293.366 84.0833 295.062 84.8409C296.759 85.5985 298.229 86.5303 299.472 87.6364C300.714 88.7424 301.676 90.0455 302.358 91.5455C303.055 93.0455 303.411 94.7652 303.426 96.7045C303.411 99.553 302.684 102.023 301.244 104.114C299.82 106.189 297.759 107.803 295.062 108.955C292.381 110.091 289.146 110.659 285.358 110.659C281.6 110.659 278.328 110.083 275.54 108.932C272.767 107.78 270.6 106.076 269.04 103.818C267.494 101.545 266.684 98.7348 266.608 95.3864H276.131C276.237 96.947 276.684 98.25 277.472 99.2955C278.275 100.326 279.343 101.106 280.676 101.636C282.025 102.152 283.547 102.409 285.244 102.409C286.911 102.409 288.358 102.167 289.585 101.682C290.828 101.197 291.79 100.523 292.472 99.6591C293.153 98.7955 293.494 97.803 293.494 96.6818C293.494 95.6364 293.184 94.7576 292.562 94.0455C291.956 93.3333 291.063 92.7273 289.881 92.2273C288.714 91.7273 287.282 91.2727 285.585 90.8636L280.517 89.5909C276.593 88.6364 273.494 87.1439 271.222 85.1136C268.949 83.0833 267.82 80.3485 267.835 76.9091C267.82 74.0909 268.57 71.6288 270.085 69.5227C271.616 67.4167 273.714 65.7727 276.381 64.5909C279.047 63.4091 282.078 62.8182 285.472 62.8182C288.926 62.8182 291.941 63.4091 294.517 64.5909C297.108 65.7727 299.123 67.4167 300.562 69.5227C302.002 71.6288 302.744 74.0682 302.79 76.8409H293.358Z" fill="#E2D1C1"/>
<path d="M3.52273 39V9.90909H21.0795V13.0341H7.04545V22.8636H20.1705V25.9886H7.04545V35.875H21.3068V39H3.52273ZM42.429 22.0682L39.4176 22.9205C39.2282 22.4186 38.9489 21.9309 38.5795 21.4574C38.2197 20.9744 37.7273 20.5767 37.1023 20.2642C36.4773 19.9517 35.6771 19.7955 34.7017 19.7955C33.3665 19.7955 32.2538 20.1032 31.3636 20.7188C30.483 21.3248 30.0426 22.0966 30.0426 23.0341C30.0426 23.8674 30.3456 24.5256 30.9517 25.0085C31.5578 25.4915 32.5047 25.8939 33.7926 26.2159L37.0312 27.0114C38.982 27.4848 40.4356 28.2093 41.392 29.1847C42.3485 30.1506 42.8267 31.3958 42.8267 32.9205C42.8267 34.1705 42.4669 35.2879 41.7472 36.2727C41.0369 37.2576 40.0426 38.0341 38.7642 38.6023C37.4858 39.1705 35.9991 39.4545 34.304 39.4545C32.0786 39.4545 30.2367 38.9716 28.7784 38.0057C27.3201 37.0398 26.3968 35.6288 26.0085 33.7727L29.1903 32.9773C29.4934 34.1515 30.0663 35.0322 30.9091 35.6193C31.7614 36.2064 32.8741 36.5 34.2472 36.5C35.8097 36.5 37.0502 36.1686 37.9688 35.5057C38.8968 34.8333 39.3608 34.0284 39.3608 33.0909C39.3608 32.3333 39.0956 31.6989 38.5653 31.1875C38.035 30.6667 37.2206 30.2784 36.1222 30.0227L32.4858 29.1705C30.4877 28.697 29.0199 27.9631 28.0824 26.9688C27.1544 25.965 26.6903 24.7102 26.6903 23.2045C26.6903 21.9735 27.036 20.8845 27.7273 19.9375C28.428 18.9905 29.3797 18.2472 30.5824 17.7074C31.7945 17.1676 33.1676 16.8977 34.7017 16.8977C36.8608 16.8977 38.5559 17.3712 39.7869 18.3182C41.0275 19.2652 41.9081 20.5152 42.429 22.0682ZM57.3615 17.1818V20.0227H46.0547V17.1818H57.3615ZM49.3501 11.9545H52.7024V32.75C52.7024 33.697 52.8397 34.4072 53.1143 34.8807C53.3984 35.3447 53.7583 35.6572 54.1939 35.8182C54.639 35.9697 55.1077 36.0455 55.6001 36.0455C55.9695 36.0455 56.2725 36.0265 56.5092 35.9886C56.746 35.9413 56.9354 35.9034 57.0774 35.875L57.7592 38.8864C57.532 38.9716 57.2147 39.0568 56.8075 39.142C56.4003 39.2367 55.8842 39.2841 55.2592 39.2841C54.3123 39.2841 53.3842 39.0805 52.4751 38.6733C51.5755 38.2661 50.8274 37.6458 50.2308 36.8125C49.6437 35.9792 49.3501 34.928 49.3501 33.6591V11.9545ZM68.8246 39.5114C67.442 39.5114 66.1873 39.2509 65.0604 38.7301C63.9335 38.1998 63.0386 37.4375 62.3757 36.4432C61.7128 35.4394 61.3814 34.2273 61.3814 32.8068C61.3814 31.5568 61.6276 30.5436 62.12 29.767C62.6125 28.9811 63.2706 28.3655 64.0945 27.9205C64.9183 27.4754 65.8274 27.1439 66.8217 26.9261C67.8255 26.6989 68.834 26.5189 69.8473 26.3864C71.1731 26.2159 72.2479 26.0881 73.0717 26.0028C73.9051 25.9081 74.5111 25.7519 74.8899 25.5341C75.2782 25.3163 75.4723 24.9375 75.4723 24.3977V24.2841C75.4723 22.8826 75.0888 21.7936 74.3217 21.017C73.5642 20.2405 72.4136 19.8523 70.87 19.8523C69.2696 19.8523 68.0149 20.2027 67.1058 20.9034C66.1967 21.6042 65.5575 22.3523 65.1882 23.1477L62.0064 22.0114C62.5746 20.6856 63.3321 19.6534 64.2791 18.9148C65.2356 18.1667 66.2772 17.6458 67.4041 17.3523C68.5405 17.0492 69.6579 16.8977 70.7564 16.8977C71.4571 16.8977 72.2621 16.983 73.1712 17.1534C74.0897 17.3144 74.9751 17.6506 75.8274 18.1619C76.6892 18.6733 77.4041 19.4451 77.9723 20.4773C78.5405 21.5095 78.8246 22.892 78.8246 24.625V39H75.4723V36.0455H75.3018C75.0746 36.5189 74.6958 37.0256 74.1655 37.5653C73.6352 38.1051 72.9297 38.5644 72.049 38.9432C71.1683 39.322 70.0935 39.5114 68.8246 39.5114ZM69.3359 36.5C70.6617 36.5 71.7791 36.2396 72.6882 35.7188C73.6068 35.1979 74.2981 34.5256 74.7621 33.7017C75.2356 32.8778 75.4723 32.0114 75.4723 31.1023V28.0341C75.3303 28.2045 75.0178 28.3608 74.5348 28.5028C74.0613 28.6354 73.5121 28.7538 72.8871 28.858C72.2715 28.9527 71.6702 29.0379 71.0831 29.1136C70.5054 29.1799 70.0367 29.2367 69.6768 29.2841C68.8056 29.3977 67.9912 29.5824 67.2337 29.8381C66.4856 30.0843 65.8795 30.4583 65.4155 30.9602C64.9609 31.4527 64.7337 32.125 64.7337 32.9773C64.7337 34.142 65.1645 35.0227 66.0263 35.6193C66.8975 36.2064 68.0007 36.5 69.3359 36.5ZM94.4318 17.1818V20.0227H83.125V17.1818H94.4318ZM86.4205 11.9545H89.7727V32.75C89.7727 33.697 89.91 34.4072 90.1847 34.8807C90.4688 35.3447 90.8286 35.6572 91.2642 35.8182C91.7093 35.9697 92.178 36.0455 92.6705 36.0455C93.0398 36.0455 93.3428 36.0265 93.5795 35.9886C93.8163 35.9413 94.0057 35.9034 94.1477 35.875L94.8295 38.8864C94.6023 38.9716 94.285 39.0568 93.8778 39.142C93.4706 39.2367 92.9545 39.2841 92.3295 39.2841C91.3826 39.2841 90.4545 39.0805 89.5455 38.6733C88.6458 38.2661 87.8977 37.6458 87.3011 36.8125C86.714 35.9792 86.4205 34.928 86.4205 33.6591V11.9545ZM108.388 39.4545C106.286 39.4545 104.472 38.9905 102.947 38.0625C101.432 37.125 100.263 35.8182 99.4389 34.142C98.6245 32.4564 98.2173 30.4962 98.2173 28.2614C98.2173 26.0265 98.6245 24.0568 99.4389 22.3523C100.263 20.6383 101.409 19.303 102.876 18.3466C104.354 17.3807 106.077 16.8977 108.047 16.8977C109.183 16.8977 110.305 17.0871 111.413 17.4659C112.521 17.8447 113.53 18.4602 114.439 19.3125C115.348 20.1553 116.072 21.2727 116.612 22.6648C117.152 24.0568 117.422 25.7708 117.422 27.8068V29.2273H100.604V26.3295H114.013C114.013 25.0985 113.767 24 113.274 23.0341C112.791 22.0682 112.1 21.3059 111.2 20.7472C110.31 20.1884 109.259 19.9091 108.047 19.9091C106.712 19.9091 105.556 20.2405 104.581 20.9034C103.615 21.5568 102.872 22.4091 102.351 23.4602C101.83 24.5114 101.57 25.6383 101.57 26.8409V28.7727C101.57 30.4205 101.854 31.8172 102.422 32.9631C103 34.0994 103.8 34.9659 104.822 35.5625C105.845 36.1496 107.034 36.4432 108.388 36.4432C109.268 36.4432 110.064 36.3201 110.774 36.0739C111.494 35.8182 112.114 35.4394 112.635 34.9375C113.156 34.4261 113.558 33.7917 113.842 33.0341L117.081 33.9432C116.74 35.0417 116.167 36.0076 115.362 36.8409C114.557 37.6648 113.563 38.3087 112.379 38.7727C111.196 39.2273 109.865 39.4545 108.388 39.4545ZM140.192 39.5114C138.809 39.5114 137.554 39.2509 136.428 38.7301C135.301 38.1998 134.406 37.4375 133.743 36.4432C133.08 35.4394 132.749 34.2273 132.749 32.8068C132.749 31.5568 132.995 30.5436 133.487 29.767C133.98 28.9811 134.638 28.3655 135.462 27.9205C136.286 27.4754 137.195 27.1439 138.189 26.9261C139.193 26.6989 140.201 26.5189 141.214 26.3864C142.54 26.2159 143.615 26.0881 144.439 26.0028C145.272 25.9081 145.878 25.7519 146.257 25.5341C146.645 25.3163 146.839 24.9375 146.839 24.3977V24.2841C146.839 22.8826 146.456 21.7936 145.689 21.017C144.931 20.2405 143.781 19.8523 142.237 19.8523C140.637 19.8523 139.382 20.2027 138.473 20.9034C137.564 21.6042 136.925 22.3523 136.555 23.1477L133.374 22.0114C133.942 20.6856 134.699 19.6534 135.646 18.9148C136.603 18.1667 137.644 17.6458 138.771 17.3523C139.908 17.0492 141.025 16.8977 142.124 16.8977C142.824 16.8977 143.629 16.983 144.538 17.1534C145.457 17.3144 146.342 17.6506 147.195 18.1619C148.056 18.6733 148.771 19.4451 149.339 20.4773C149.908 21.5095 150.192 22.892 150.192 24.625V39H146.839V36.0455H146.669C146.442 36.5189 146.063 37.0256 145.533 37.5653C145.002 38.1051 144.297 38.5644 143.416 38.9432C142.536 39.322 141.461 39.5114 140.192 39.5114ZM140.703 36.5C142.029 36.5 143.146 36.2396 144.055 35.7188C144.974 35.1979 145.665 34.5256 146.129 33.7017C146.603 32.8778 146.839 32.0114 146.839 31.1023V28.0341C146.697 28.2045 146.385 28.3608 145.902 28.5028C145.429 28.6354 144.879 28.7538 144.254 28.858C143.639 28.9527 143.037 29.0379 142.45 29.1136C141.873 29.1799 141.404 29.2367 141.044 29.2841C140.173 29.3977 139.358 29.5824 138.601 29.8381C137.853 30.0843 137.247 30.4583 136.783 30.9602C136.328 31.4527 136.101 32.125 136.101 32.9773C136.101 34.142 136.532 35.0227 137.393 35.6193C138.265 36.2064 139.368 36.5 140.703 36.5ZM165.117 47.6364C163.498 47.6364 162.106 47.428 160.941 47.0114C159.776 46.6042 158.806 46.0644 158.029 45.392C157.262 44.7292 156.651 44.0189 156.197 43.2614L158.867 41.3864C159.17 41.7841 159.554 42.2386 160.018 42.75C160.482 43.2708 161.116 43.7206 161.921 44.0994C162.736 44.4877 163.801 44.6818 165.117 44.6818C166.879 44.6818 168.332 44.2557 169.478 43.4034C170.624 42.5511 171.197 41.2159 171.197 39.3977V34.9659H170.913C170.666 35.3636 170.316 35.8561 169.862 36.4432C169.416 37.0208 168.772 37.5369 167.93 37.9915C167.096 38.4366 165.969 38.6591 164.549 38.6591C162.788 38.6591 161.206 38.2424 159.805 37.4091C158.413 36.5758 157.309 35.3636 156.495 33.7727C155.69 32.1818 155.288 30.25 155.288 27.9773C155.288 25.7424 155.681 23.7964 156.467 22.1392C157.253 20.4725 158.346 19.1847 159.748 18.2756C161.149 17.357 162.769 16.8977 164.606 16.8977C166.026 16.8977 167.153 17.1345 167.987 17.608C168.829 18.072 169.473 18.6023 169.918 19.1989C170.373 19.786 170.723 20.2689 170.969 20.6477H171.31V17.1818H174.549V39.625C174.549 41.5 174.123 43.0246 173.271 44.1989C172.428 45.3826 171.291 46.2491 169.862 46.7983C168.441 47.357 166.86 47.6364 165.117 47.6364ZM165.004 35.6477C166.348 35.6477 167.485 35.34 168.413 34.7244C169.341 34.1089 170.046 33.2235 170.529 32.0682C171.012 30.9129 171.254 29.5303 171.254 27.9205C171.254 26.3485 171.017 24.9612 170.543 23.7585C170.07 22.5559 169.369 21.6136 168.441 20.9318C167.513 20.25 166.367 19.9091 165.004 19.9091C163.583 19.9091 162.399 20.2689 161.452 20.9886C160.515 21.7083 159.809 22.6742 159.336 23.8864C158.872 25.0985 158.64 26.4432 158.64 27.9205C158.64 29.4356 158.877 30.7756 159.35 31.9403C159.833 33.0956 160.543 34.0047 161.481 34.6676C162.428 35.321 163.602 35.6477 165.004 35.6477ZM189.833 39.4545C187.731 39.4545 185.917 38.9905 184.393 38.0625C182.878 37.125 181.708 35.8182 180.884 34.142C180.07 32.4564 179.663 30.4962 179.663 28.2614C179.663 26.0265 180.07 24.0568 180.884 22.3523C181.708 20.6383 182.854 19.303 184.322 18.3466C185.799 17.3807 187.522 16.8977 189.492 16.8977C190.629 16.8977 191.751 17.0871 192.859 17.4659C193.967 17.8447 194.975 18.4602 195.884 19.3125C196.793 20.1553 197.518 21.2727 198.058 22.6648C198.597 24.0568 198.867 25.7708 198.867 27.8068V29.2273H182.049V26.3295H195.458C195.458 25.0985 195.212 24 194.719 23.0341C194.237 22.0682 193.545 21.3059 192.646 20.7472C191.755 20.1884 190.704 19.9091 189.492 19.9091C188.157 19.9091 187.002 20.2405 186.026 20.9034C185.06 21.5568 184.317 22.4091 183.796 23.4602C183.275 24.5114 183.015 25.6383 183.015 26.8409V28.7727C183.015 30.4205 183.299 31.8172 183.867 32.9631C184.445 34.0994 185.245 34.9659 186.268 35.5625C187.29 36.1496 188.479 36.4432 189.833 36.4432C190.714 36.4432 191.509 36.3201 192.219 36.0739C192.939 35.8182 193.559 35.4394 194.08 34.9375C194.601 34.4261 195.004 33.7917 195.288 33.0341L198.526 33.9432C198.185 35.0417 197.612 36.0076 196.808 36.8409C196.003 37.6648 195.008 38.3087 193.825 38.7727C192.641 39.2273 191.31 39.4545 189.833 39.4545ZM207.319 25.875V39H203.967V17.1818H207.205V20.5909H207.489C208.001 19.483 208.777 18.5928 209.819 17.9205C210.861 17.2386 212.205 16.8977 213.853 16.8977C215.33 16.8977 216.623 17.2008 217.731 17.8068C218.839 18.4034 219.701 19.3125 220.316 20.5341C220.932 21.7462 221.239 23.2803 221.239 25.1364V39H217.887V25.3636C217.887 23.6496 217.442 22.3144 216.552 21.358C215.662 20.392 214.44 19.9091 212.887 19.9091C211.817 19.9091 210.861 20.1411 210.018 20.6051C209.184 21.0691 208.526 21.7462 208.043 22.6364C207.56 23.5265 207.319 24.6061 207.319 25.875ZM236.229 39.4545C234.183 39.4545 232.422 38.9716 230.945 38.0057C229.467 37.0398 228.331 35.7093 227.536 34.0142C226.74 32.3191 226.342 30.3826 226.342 28.2045C226.342 25.9886 226.75 24.0331 227.564 22.3381C228.388 20.6335 229.534 19.303 231.001 18.3466C232.479 17.3807 234.202 16.8977 236.172 16.8977C237.706 16.8977 239.089 17.1818 240.32 17.75C241.551 18.3182 242.559 19.1136 243.345 20.1364C244.131 21.1591 244.619 22.3523 244.808 23.7159H241.456C241.2 22.7216 240.632 21.8409 239.751 21.0739C238.88 20.2973 237.706 19.9091 236.229 19.9091C234.922 19.9091 233.776 20.25 232.791 20.9318C231.816 21.6042 231.054 22.5559 230.504 23.7869C229.964 25.0085 229.695 26.4432 229.695 28.0909C229.695 29.7765 229.96 31.2443 230.49 32.4943C231.03 33.7443 231.787 34.715 232.763 35.4062C233.748 36.0975 234.903 36.4432 236.229 36.4432C237.1 36.4432 237.891 36.2917 238.601 35.9886C239.311 35.6856 239.912 35.25 240.405 34.6818C240.897 34.1136 241.248 33.4318 241.456 32.6364H244.808C244.619 33.9242 244.15 35.0843 243.402 36.1165C242.663 37.1392 241.683 37.9536 240.462 38.5597C239.25 39.1562 237.839 39.4545 236.229 39.4545ZM251.868 47.1818C251.3 47.1818 250.793 47.1345 250.348 47.0398C249.903 46.9545 249.595 46.8693 249.425 46.7841L250.277 43.8295C251.091 44.0379 251.811 44.1136 252.436 44.0568C253.061 44 253.615 43.7206 254.098 43.2188C254.59 42.7263 255.04 41.9261 255.447 40.8182L256.072 39.1136L248.004 17.1818H251.641L257.663 34.5682H257.891L263.913 17.1818H267.55L258.288 42.1818C257.872 43.3087 257.356 44.2415 256.74 44.9801C256.125 45.7282 255.41 46.2822 254.595 46.642C253.79 47.0019 252.881 47.1818 251.868 47.1818Z" fill="#E2D1C1"/>
</svg>
