<svg width="131" height="131" viewBox="0 0 131 131" fill="none" xmlns="http://www.w3.org/2000/svg">
<circle cx="65.5" cy="65.5" r="64.5" stroke="#E2D1C1" stroke-width="2"/>
<path d="M71.84 96C71.04 96 70.3467 95.7067 69.76 95.12C69.1733 94.5333 68.88 93.7867 68.88 92.88V81.04H40.24C39.3867 81.04 38.6667 80.7733 38.08 80.24C37.5467 79.6533 37.2267 78.9867 37.12 78.24C37.0667 77.4933 37.28 76.8 37.76 76.16L69.44 34.72C69.7067 34.3467 70.0267 34.0533 70.4 33.84C70.8267 33.5733 71.36 33.44 72 33.44C72.8533 33.44 73.5467 33.76 74.08 34.4C74.6667 34.9867 74.96 35.7333 74.96 36.64V75.44H81.28C82.1333 75.44 82.8533 75.6533 83.44 76.08C84.0267 76.5067 84.32 77.2533 84.32 78.32C84.32 79.0133 84.0267 79.6533 83.44 80.24C82.8533 80.7733 82.1333 81.04 81.28 81.04H74.96V92.88C74.96 93.7867 74.6667 94.5333 74.08 95.12C73.4933 95.7067 72.7467 96 71.84 96ZM43.6 77.84L42.48 75.44H68.88V41.12L70.48 42.8L43.6 77.84Z" fill="#E2D1C1"/>
</svg>
