<svg width="131" height="131" viewBox="0 0 131 131" fill="none" xmlns="http://www.w3.org/2000/svg">
<circle cx="65.5" cy="65.5" r="64.5" stroke="#E2D1C1" stroke-width="2"/>
<path d="M50.8 94C49.9467 94 49.2 93.7067 48.56 93.12C47.9733 92.5333 47.68 91.7867 47.68 90.88C47.68 90.08 47.9733 89.36 48.56 88.72L72.8 60.08C74.1333 58.64 75.2 57.04 76 55.28C76.8 53.4667 77.2 51.7867 77.2 50.24C77.2 47.7333 76.6933 45.52 75.68 43.6C74.72 41.68 73.3333 40.1867 71.52 39.12C69.76 38 67.7333 37.44 65.44 37.44C63.2 37.44 61.1467 38.0267 59.28 39.2C57.4667 40.32 56.0267 41.84 54.96 43.76C53.9467 45.68 53.44 47.84 53.44 50.24C53.44 51.0933 53.1467 51.8133 52.56 52.4C51.9733 52.9867 51.2267 53.28 50.32 53.28C49.4667 53.28 48.72 52.9867 48.08 52.4C47.4933 51.8133 47.2 51.0933 47.2 50.24C47.2 46.6667 48 43.4667 49.6 40.64C51.2 37.8133 53.36 35.5733 56.08 33.92C58.8533 32.2667 61.9733 31.44 65.44 31.44C68.9067 31.44 71.9733 32.24 74.64 33.84C77.36 35.44 79.4667 37.6533 80.96 40.48C82.5067 43.3067 83.28 46.56 83.28 50.24C83.28 52 82.9867 53.68 82.4 55.28C81.8667 56.88 81.12 58.4267 80.16 59.92C79.2 61.36 78.16 62.72 77.04 64L56.56 87.76H81.6C82.4533 87.76 83.1733 88.08 83.76 88.72C84.4 89.36 84.72 90.08 84.72 90.88C84.72 91.7867 84.4 92.5333 83.76 93.12C83.1733 93.7067 82.4533 94 81.6 94H50.8Z" fill="#E2D1C1"/>
</svg>
