<svg width="131" height="131" viewBox="0 0 131 131" fill="none" xmlns="http://www.w3.org/2000/svg">
<circle cx="65.5" cy="65.5" r="64.5" stroke="#E2D1C1" stroke-width="2"/>
<path d="M66 98.4C62.2667 98.4 58.9067 97.6 55.92 96C52.9867 94.3467 50.6667 92.1067 48.96 89.28C47.2533 86.4533 46.4 83.2533 46.4 79.68C46.4 78.7733 46.6667 78 47.2 77.36C47.7333 76.72 48.4533 76.4 49.36 76.4C50.2667 76.4 50.9867 76.72 51.52 77.36C52.0533 78 52.32 78.7733 52.32 79.68C52.32 82.1333 52.9067 84.3467 54.08 86.32C55.2533 88.24 56.8533 89.7867 58.88 90.96C60.96 92.08 63.2533 92.64 65.76 92.64C69.92 92.64 73.1733 91.4933 75.52 89.2C77.8667 86.8533 79.04 83.84 79.04 80.16C79.04 77.5467 78.48 75.28 77.36 73.36C76.24 71.3867 74.72 69.8667 72.8 68.8C70.88 67.68 68.72 67.12 66.32 67.12C65.4667 67.12 64.7467 66.8267 64.16 66.24C63.5733 65.6533 63.28 64.9067 63.28 64C63.28 63.1467 63.5733 62.4267 64.16 61.84C64.7467 61.2533 65.4667 60.96 66.32 60.96C68.1867 60.96 69.8933 60.5067 71.44 59.6C73.04 58.64 74.32 57.3867 75.28 55.84C76.24 54.2933 76.72 52.5867 76.72 50.72C76.72 47.8933 75.76 45.5467 73.84 43.68C71.92 41.76 69.36 40.8 66.16 40.8C63.92 40.8 61.92 41.2533 60.16 42.16C58.4 43.0133 57.0133 44.1867 56 45.68C55.04 47.12 54.56 48.7733 54.56 50.64C54.56 51.5467 54.2667 52.32 53.68 52.96C53.1467 53.5467 52.4533 53.84 51.6 53.84C50.6933 53.84 49.9733 53.5467 49.44 52.96C48.9067 52.32 48.64 51.5733 48.64 50.72C48.64 47.7867 49.3867 45.1467 50.88 42.8C52.4267 40.4 54.5067 38.5333 57.12 37.2C59.7333 35.8133 62.7467 35.12 66.16 35.12C69.2533 35.12 72.0267 35.8133 74.48 37.2C76.9867 38.5333 78.96 40.4 80.4 42.8C81.8933 45.1467 82.64 47.7867 82.64 50.72C82.64 52.5333 82.1867 54.2933 81.28 56C80.4267 57.7067 79.28 59.2533 77.84 60.64C76.4 61.9733 74.8267 63.0133 73.12 63.76C75.84 64.56 78.1067 65.7867 79.92 67.44C81.7333 69.0933 83.0667 71.04 83.92 73.28C84.7733 75.4667 85.2 77.76 85.2 80.16C85.2 83.68 84.3467 86.8267 82.64 89.6C80.9867 92.32 78.6933 94.48 75.76 96.08C72.8267 97.6267 69.5733 98.4 66 98.4Z" fill="#E2D1C1"/>
</svg>
