<svg width="666" height="535" viewBox="0 0 666 535" fill="none" xmlns="http://www.w3.org/2000/svg">
<circle cx="267.5" cy="267.5" r="267.5" transform="matrix(-1 0 0 1 535 0)" fill="#FBF6F3"/>
<mask id="path-2-inside-1_445_2" fill="white">
<path d="M404.763 174.76C386.101 147.389 359.009 126.865 327.608 116.309C296.208 105.754 262.218 105.746 230.813 116.286C199.407 126.826 172.305 147.338 153.63 174.7C134.955 202.062 125.731 234.775 127.36 267.862C128.989 300.95 141.383 332.599 162.656 357.993C183.928 383.388 212.915 401.138 245.204 408.542C277.493 415.946 311.317 412.598 341.529 399.009C371.74 385.42 396.685 362.332 412.568 333.261L408.162 330.854C392.804 358.965 368.683 381.29 339.469 394.43C310.256 407.571 277.549 410.808 246.326 403.648C215.103 396.489 187.074 379.325 166.504 354.769C145.934 330.214 133.95 299.61 132.374 267.616C130.799 235.621 139.719 203.988 157.777 177.53C175.835 151.072 202.042 131.238 232.41 121.045C262.778 110.853 295.645 110.861 326.009 121.068C356.372 131.275 382.57 151.122 400.615 177.588L404.763 174.76Z"/>
</mask>
<path d="M404.763 174.76C386.101 147.389 359.009 126.865 327.608 116.309C296.208 105.754 262.218 105.746 230.813 116.286C199.407 126.826 172.305 147.338 153.63 174.7C134.955 202.062 125.731 234.775 127.36 267.862C128.989 300.95 141.383 332.599 162.656 357.993C183.928 383.388 212.915 401.138 245.204 408.542C277.493 415.946 311.317 412.598 341.529 399.009C371.74 385.42 396.685 362.332 412.568 333.261L408.162 330.854C392.804 358.965 368.683 381.29 339.469 394.43C310.256 407.571 277.549 410.808 246.326 403.648C215.103 396.489 187.074 379.325 166.504 354.769C145.934 330.214 133.95 299.61 132.374 267.616C130.799 235.621 139.719 203.988 157.777 177.53C175.835 151.072 202.042 131.238 232.41 121.045C262.778 110.853 295.645 110.861 326.009 121.068C356.372 131.275 382.57 151.122 400.615 177.588L404.763 174.76Z" stroke="#E2D1C1" stroke-width="10" mask="url(#path-2-inside-1_445_2)"/>
<path d="M238 306.407C238 349.9 153.4 352 115.9 352C78.3998 352 48 316.742 48 273.248C48 229.754 62.8903 186.206 102.796 195.187C130.79 222.128 201.668 244.925 238 306.407Z" fill="#E2D1C1"/>
<path d="M94.8848 213.75V282H80.8691V213.75H94.8848ZM163.604 213.75V282H149.541L122.119 236.25V282H108.057V213.75H122.119L149.588 259.547V213.75H163.604ZM211.369 264.141C211.369 262.922 211.182 261.828 210.807 260.859C210.463 259.859 209.807 258.953 208.838 258.141C207.869 257.297 206.51 256.469 204.76 255.656C203.01 254.844 200.744 254 197.963 253.125C194.869 252.125 191.932 251 189.15 249.75C186.4 248.5 183.963 247.047 181.838 245.391C179.744 243.703 178.088 241.75 176.869 239.531C175.682 237.312 175.088 234.734 175.088 231.797C175.088 228.953 175.713 226.375 176.963 224.062C178.213 221.719 179.963 219.719 182.213 218.062C184.463 216.375 187.119 215.078 190.182 214.172C193.275 213.266 196.666 212.812 200.354 212.812C205.385 212.812 209.775 213.719 213.525 215.531C217.275 217.344 220.182 219.828 222.244 222.984C224.338 226.141 225.385 229.75 225.385 233.812H211.416C211.416 231.812 210.994 230.062 210.15 228.562C209.338 227.031 208.088 225.828 206.4 224.953C204.744 224.078 202.65 223.641 200.119 223.641C197.682 223.641 195.65 224.016 194.025 224.766C192.4 225.484 191.182 226.469 190.369 227.719C189.557 228.938 189.15 230.312 189.15 231.844C189.15 233 189.432 234.047 189.994 234.984C190.588 235.922 191.463 236.797 192.619 237.609C193.775 238.422 195.197 239.188 196.885 239.906C198.572 240.625 200.525 241.328 202.744 242.016C206.463 243.141 209.729 244.406 212.541 245.812C215.385 247.219 217.76 248.797 219.666 250.547C221.572 252.297 223.01 254.281 223.979 256.5C224.947 258.719 225.432 261.234 225.432 264.047C225.432 267.016 224.854 269.672 223.697 272.016C222.541 274.359 220.869 276.344 218.682 277.969C216.494 279.594 213.885 280.828 210.854 281.672C207.822 282.516 204.432 282.938 200.682 282.938C197.307 282.938 193.979 282.5 190.697 281.625C187.416 280.719 184.432 279.359 181.744 277.547C179.088 275.734 176.963 273.422 175.369 270.609C173.775 267.797 172.979 264.469 172.979 260.625H187.088C187.088 262.75 187.416 264.547 188.072 266.016C188.729 267.484 189.65 268.672 190.838 269.578C192.057 270.484 193.494 271.141 195.15 271.547C196.838 271.953 198.682 272.156 200.682 272.156C203.119 272.156 205.119 271.812 206.682 271.125C208.275 270.438 209.447 269.484 210.197 268.266C210.979 267.047 211.369 265.672 211.369 264.141ZM249.947 213.75V282H235.932V213.75H249.947ZM317.213 246.328V273.375C316.15 274.656 314.51 276.047 312.291 277.547C310.072 279.016 307.213 280.281 303.713 281.344C300.213 282.406 295.979 282.938 291.01 282.938C286.604 282.938 282.588 282.219 278.963 280.781C275.338 279.312 272.213 277.172 269.588 274.359C266.994 271.547 264.994 268.109 263.588 264.047C262.182 259.953 261.479 255.281 261.479 250.031V245.766C261.479 240.516 262.15 235.844 263.494 231.75C264.869 227.656 266.822 224.203 269.354 221.391C271.885 218.578 274.9 216.438 278.4 214.969C281.9 213.5 285.791 212.766 290.072 212.766C296.01 212.766 300.885 213.734 304.697 215.672C308.51 217.578 311.416 220.234 313.416 223.641C315.447 227.016 316.697 230.891 317.166 235.266H303.525C303.182 232.953 302.525 230.938 301.557 229.219C300.588 227.5 299.197 226.156 297.385 225.188C295.604 224.219 293.291 223.734 290.447 223.734C288.104 223.734 286.01 224.219 284.166 225.188C282.354 226.125 280.822 227.516 279.572 229.359C278.322 231.203 277.369 233.484 276.713 236.203C276.057 238.922 275.729 242.078 275.729 245.672V250.031C275.729 253.594 276.072 256.75 276.76 259.5C277.447 262.219 278.463 264.516 279.807 266.391C281.182 268.234 282.869 269.625 284.869 270.562C286.869 271.5 289.197 271.969 291.854 271.969C294.072 271.969 295.916 271.781 297.385 271.406C298.885 271.031 300.088 270.578 300.994 270.047C301.932 269.484 302.65 268.953 303.15 268.453V256.359H290.307V246.328H317.213ZM374.072 241.547V252.516H338.447V241.547H374.072ZM342.619 213.75V282H328.557V213.75H342.619ZM384.104 213.75V282H370.088V213.75H384.104ZM425.447 213.75V282H411.432V213.75H425.447ZM446.447 213.75V224.766H390.76V213.75H446.447ZM489.244 264.141C489.244 262.922 489.057 261.828 488.682 260.859C488.338 259.859 487.682 258.953 486.713 258.141C485.744 257.297 484.385 256.469 482.635 255.656C480.885 254.844 478.619 254 475.838 253.125C472.744 252.125 469.807 251 467.025 249.75C464.275 248.5 461.838 247.047 459.713 245.391C457.619 243.703 455.963 241.75 454.744 239.531C453.557 237.312 452.963 234.734 452.963 231.797C452.963 228.953 453.588 226.375 454.838 224.062C456.088 221.719 457.838 219.719 460.088 218.062C462.338 216.375 464.994 215.078 468.057 214.172C471.15 213.266 474.541 212.812 478.229 212.812C483.26 212.812 487.65 213.719 491.4 215.531C495.15 217.344 498.057 219.828 500.119 222.984C502.213 226.141 503.26 229.75 503.26 233.812H489.291C489.291 231.812 488.869 230.062 488.025 228.562C487.213 227.031 485.963 225.828 484.275 224.953C482.619 224.078 480.525 223.641 477.994 223.641C475.557 223.641 473.525 224.016 471.9 224.766C470.275 225.484 469.057 226.469 468.244 227.719C467.432 228.938 467.025 230.312 467.025 231.844C467.025 233 467.307 234.047 467.869 234.984C468.463 235.922 469.338 236.797 470.494 237.609C471.65 238.422 473.072 239.188 474.76 239.906C476.447 240.625 478.4 241.328 480.619 242.016C484.338 243.141 487.604 244.406 490.416 245.812C493.26 247.219 495.635 248.797 497.541 250.547C499.447 252.297 500.885 254.281 501.854 256.5C502.822 258.719 503.307 261.234 503.307 264.047C503.307 267.016 502.729 269.672 501.572 272.016C500.416 274.359 498.744 276.344 496.557 277.969C494.369 279.594 491.76 280.828 488.729 281.672C485.697 282.516 482.307 282.938 478.557 282.938C475.182 282.938 471.854 282.5 468.572 281.625C465.291 280.719 462.307 279.359 459.619 277.547C456.963 275.734 454.838 273.422 453.244 270.609C451.65 267.797 450.854 264.469 450.854 260.625H464.963C464.963 262.75 465.291 264.547 465.947 266.016C466.604 267.484 467.525 268.672 468.713 269.578C469.932 270.484 471.369 271.141 473.025 271.547C474.713 271.953 476.557 272.156 478.557 272.156C480.994 272.156 482.994 271.812 484.557 271.125C486.15 270.438 487.322 269.484 488.072 268.266C488.854 267.047 489.244 265.672 489.244 264.141Z" fill="#424530"/>
<path d="M78.0652 322.98V288.071H99.1333V291.821H82.2924V303.617H98.0424V307.367H82.2924V319.23H99.4061V322.98H78.0652ZM124.753 302.662L121.139 303.685C120.912 303.083 120.577 302.498 120.133 301.929C119.702 301.35 119.111 300.873 118.361 300.498C117.611 300.123 116.65 299.935 115.48 299.935C113.878 299.935 112.542 300.304 111.474 301.043C110.417 301.77 109.889 302.696 109.889 303.821C109.889 304.821 110.253 305.611 110.98 306.191C111.707 306.77 112.844 307.253 114.389 307.64L118.275 308.594C120.616 309.162 122.361 310.032 123.508 311.202C124.656 312.361 125.23 313.855 125.23 315.685C125.23 317.185 124.798 318.526 123.934 319.708C123.082 320.89 121.889 321.821 120.355 322.503C118.821 323.185 117.037 323.526 115.003 323.526C112.332 323.526 110.122 322.946 108.372 321.787C106.622 320.628 105.514 318.935 105.048 316.708L108.866 315.753C109.23 317.162 109.917 318.219 110.929 318.924C111.952 319.628 113.287 319.98 114.934 319.98C116.809 319.98 118.298 319.583 119.4 318.787C120.514 317.98 121.071 317.015 121.071 315.89C121.071 314.98 120.753 314.219 120.116 313.605C119.48 312.98 118.503 312.515 117.184 312.208L112.821 311.185C110.423 310.617 108.662 309.736 107.537 308.543C106.423 307.338 105.866 305.833 105.866 304.026C105.866 302.549 106.281 301.242 107.111 300.105C107.952 298.969 109.094 298.077 110.537 297.429C111.991 296.782 113.639 296.458 115.48 296.458C118.071 296.458 120.105 297.026 121.582 298.162C123.071 299.299 124.128 300.799 124.753 302.662ZM142.672 296.799V300.208H129.104V296.799H142.672ZM133.058 290.526H137.081V315.48C137.081 316.617 137.246 317.469 137.575 318.037C137.916 318.594 138.348 318.969 138.871 319.162C139.405 319.344 139.967 319.435 140.558 319.435C141.001 319.435 141.365 319.412 141.649 319.367C141.933 319.31 142.16 319.265 142.331 319.23L143.149 322.844C142.876 322.946 142.496 323.049 142.007 323.151C141.518 323.265 140.899 323.321 140.149 323.321C139.013 323.321 137.899 323.077 136.808 322.588C135.729 322.1 134.831 321.355 134.115 320.355C133.41 319.355 133.058 318.094 133.058 316.571V290.526ZM156.427 323.594C154.768 323.594 153.263 323.282 151.91 322.657C150.558 322.02 149.484 321.105 148.689 319.912C147.893 318.708 147.496 317.253 147.496 315.549C147.496 314.049 147.791 312.833 148.382 311.901C148.973 310.958 149.763 310.219 150.751 309.685C151.74 309.151 152.831 308.753 154.024 308.492C155.229 308.219 156.439 308.003 157.655 307.844C159.246 307.64 160.535 307.486 161.524 307.384C162.524 307.27 163.251 307.083 163.706 306.821C164.172 306.56 164.405 306.105 164.405 305.458V305.321C164.405 303.64 163.944 302.333 163.024 301.401C162.115 300.469 160.734 300.003 158.882 300.003C156.961 300.003 155.456 300.424 154.365 301.265C153.274 302.105 152.507 303.003 152.064 303.958L148.246 302.594C148.927 301.003 149.836 299.765 150.973 298.878C152.121 297.98 153.371 297.355 154.723 297.003C156.086 296.64 157.427 296.458 158.746 296.458C159.586 296.458 160.552 296.56 161.643 296.765C162.746 296.958 163.808 297.361 164.831 297.975C165.865 298.588 166.723 299.515 167.405 300.753C168.086 301.992 168.427 303.651 168.427 305.73V322.98H164.405V319.435H164.2C163.927 320.003 163.473 320.611 162.836 321.259C162.2 321.907 161.354 322.458 160.297 322.912C159.24 323.367 157.95 323.594 156.427 323.594ZM157.041 319.98C158.632 319.98 159.973 319.668 161.064 319.043C162.166 318.418 162.996 317.611 163.552 316.623C164.121 315.634 164.405 314.594 164.405 313.503V309.821C164.234 310.026 163.859 310.213 163.28 310.384C162.711 310.543 162.052 310.685 161.302 310.81C160.564 310.924 159.842 311.026 159.138 311.117C158.444 311.196 157.882 311.265 157.45 311.321C156.405 311.458 155.427 311.679 154.518 311.986C153.621 312.282 152.893 312.73 152.336 313.333C151.791 313.924 151.518 314.73 151.518 315.753C151.518 317.151 152.035 318.208 153.069 318.924C154.115 319.628 155.439 319.98 157.041 319.98ZM187.156 296.799V300.208H173.588V296.799H187.156ZM177.542 290.526H181.565V315.48C181.565 316.617 181.73 317.469 182.059 318.037C182.4 318.594 182.832 318.969 183.355 319.162C183.889 319.344 184.452 319.435 185.042 319.435C185.486 319.435 185.849 319.412 186.133 319.367C186.417 319.31 186.645 319.265 186.815 319.23L187.633 322.844C187.361 322.946 186.98 323.049 186.491 323.151C186.003 323.265 185.383 323.321 184.633 323.321C183.497 323.321 182.383 323.077 181.292 322.588C180.213 322.1 179.315 321.355 178.599 320.355C177.895 319.355 177.542 318.094 177.542 316.571V290.526ZM203.903 323.526C201.381 323.526 199.204 322.969 197.375 321.855C195.557 320.73 194.153 319.162 193.165 317.151C192.187 315.128 191.699 312.776 191.699 310.094C191.699 307.412 192.187 305.049 193.165 303.003C194.153 300.946 195.528 299.344 197.29 298.196C199.062 297.037 201.131 296.458 203.494 296.458C204.858 296.458 206.204 296.685 207.534 297.14C208.863 297.594 210.074 298.333 211.165 299.355C212.256 300.367 213.125 301.708 213.773 303.378C214.42 305.049 214.744 307.105 214.744 309.549V311.253H194.562V307.776H210.653C210.653 306.299 210.358 304.98 209.767 303.821C209.187 302.662 208.358 301.748 207.278 301.077C206.21 300.407 204.949 300.071 203.494 300.071C201.892 300.071 200.506 300.469 199.335 301.265C198.176 302.049 197.284 303.071 196.659 304.333C196.034 305.594 195.721 306.946 195.721 308.39V310.708C195.721 312.685 196.062 314.361 196.744 315.736C197.437 317.1 198.398 318.14 199.625 318.855C200.852 319.56 202.278 319.912 203.903 319.912C204.96 319.912 205.915 319.765 206.767 319.469C207.631 319.162 208.375 318.708 209 318.105C209.625 317.492 210.108 316.73 210.449 315.821L214.335 316.912C213.926 318.23 213.238 319.39 212.273 320.39C211.307 321.378 210.113 322.151 208.693 322.708C207.273 323.253 205.676 323.526 203.903 323.526ZM242.068 323.594C240.409 323.594 238.903 323.282 237.551 322.657C236.199 322.02 235.125 321.105 234.329 319.912C233.534 318.708 233.136 317.253 233.136 315.549C233.136 314.049 233.432 312.833 234.023 311.901C234.613 310.958 235.403 310.219 236.392 309.685C237.381 309.151 238.471 308.753 239.665 308.492C240.869 308.219 242.079 308.003 243.295 307.844C244.886 307.64 246.176 307.486 247.165 307.384C248.165 307.27 248.892 307.083 249.346 306.821C249.812 306.56 250.045 306.105 250.045 305.458V305.321C250.045 303.64 249.585 302.333 248.665 301.401C247.756 300.469 246.375 300.003 244.523 300.003C242.602 300.003 241.096 300.424 240.006 301.265C238.915 302.105 238.148 303.003 237.704 303.958L233.886 302.594C234.568 301.003 235.477 299.765 236.613 298.878C237.761 297.98 239.011 297.355 240.363 297.003C241.727 296.64 243.068 296.458 244.386 296.458C245.227 296.458 246.193 296.56 247.284 296.765C248.386 296.958 249.449 297.361 250.471 297.975C251.506 298.588 252.363 299.515 253.045 300.753C253.727 301.992 254.068 303.651 254.068 305.73V322.98H250.045V319.435H249.841C249.568 320.003 249.113 320.611 248.477 321.259C247.841 321.907 246.994 322.458 245.937 322.912C244.881 323.367 243.591 323.594 242.068 323.594ZM242.682 319.98C244.273 319.98 245.613 319.668 246.704 319.043C247.807 318.418 248.636 317.611 249.193 316.623C249.761 315.634 250.045 314.594 250.045 313.503V309.821C249.875 310.026 249.5 310.213 248.92 310.384C248.352 310.543 247.693 310.685 246.943 310.81C246.204 310.924 245.483 311.026 244.778 311.117C244.085 311.196 243.523 311.265 243.091 311.321C242.045 311.458 241.068 311.679 240.159 311.986C239.261 312.282 238.534 312.73 237.977 313.333C237.432 313.924 237.159 314.73 237.159 315.753C237.159 317.151 237.676 318.208 238.71 318.924C239.756 319.628 241.079 319.98 242.682 319.98ZM271.979 333.344C270.035 333.344 268.365 333.094 266.967 332.594C265.569 332.105 264.405 331.458 263.473 330.651C262.552 329.855 261.819 329.003 261.274 328.094L264.479 325.844C264.842 326.321 265.302 326.867 265.859 327.48C266.416 328.105 267.177 328.645 268.143 329.1C269.121 329.566 270.399 329.799 271.979 329.799C274.092 329.799 275.836 329.287 277.211 328.265C278.586 327.242 279.274 325.64 279.274 323.458V318.14H278.933C278.638 318.617 278.217 319.208 277.672 319.912C277.138 320.605 276.365 321.225 275.354 321.77C274.354 322.304 273.001 322.571 271.297 322.571C269.183 322.571 267.285 322.071 265.604 321.071C263.933 320.071 262.609 318.617 261.632 316.708C260.666 314.799 260.183 312.48 260.183 309.753C260.183 307.071 260.655 304.736 261.598 302.748C262.541 300.748 263.854 299.202 265.535 298.111C267.217 297.009 269.16 296.458 271.365 296.458C273.069 296.458 274.422 296.742 275.422 297.31C276.433 297.867 277.206 298.503 277.74 299.219C278.285 299.924 278.706 300.503 279.001 300.958H279.41V296.799H283.297V323.73C283.297 325.98 282.785 327.81 281.763 329.219C280.751 330.64 279.388 331.679 277.672 332.338C275.967 333.009 274.069 333.344 271.979 333.344ZM271.842 318.958C273.456 318.958 274.819 318.588 275.933 317.85C277.047 317.111 277.893 316.049 278.473 314.662C279.052 313.276 279.342 311.617 279.342 309.685C279.342 307.799 279.058 306.134 278.49 304.691C277.922 303.248 277.081 302.117 275.967 301.299C274.854 300.48 273.479 300.071 271.842 300.071C270.138 300.071 268.717 300.503 267.581 301.367C266.456 302.23 265.609 303.39 265.041 304.844C264.484 306.299 264.206 307.912 264.206 309.685C264.206 311.503 264.49 313.111 265.058 314.509C265.638 315.895 266.49 316.986 267.615 317.782C268.751 318.566 270.16 318.958 271.842 318.958ZM301.638 323.526C299.115 323.526 296.939 322.969 295.109 321.855C293.291 320.73 291.888 319.162 290.899 317.151C289.922 315.128 289.433 312.776 289.433 310.094C289.433 307.412 289.922 305.049 290.899 303.003C291.888 300.946 293.263 299.344 295.024 298.196C296.797 297.037 298.865 296.458 301.229 296.458C302.592 296.458 303.939 296.685 305.268 297.14C306.598 297.594 307.808 298.333 308.899 299.355C309.99 300.367 310.859 301.708 311.507 303.378C312.155 305.049 312.479 307.105 312.479 309.549V311.253H292.297V307.776H308.388C308.388 306.299 308.092 304.98 307.501 303.821C306.922 302.662 306.092 301.748 305.013 301.077C303.944 300.407 302.683 300.071 301.229 300.071C299.626 300.071 298.24 300.469 297.069 301.265C295.91 302.049 295.018 303.071 294.393 304.333C293.768 305.594 293.456 306.946 293.456 308.39V310.708C293.456 312.685 293.797 314.361 294.479 315.736C295.172 317.1 296.132 318.14 297.359 318.855C298.586 319.56 300.013 319.912 301.638 319.912C302.694 319.912 303.649 319.765 304.501 319.469C305.365 319.162 306.109 318.708 306.734 318.105C307.359 317.492 307.842 316.73 308.183 315.821L312.069 316.912C311.66 318.23 310.973 319.39 310.007 320.39C309.041 321.378 307.848 322.151 306.427 322.708C305.007 323.253 303.41 323.526 301.638 323.526ZM322.621 307.23V322.98H318.598V296.799H322.484V300.89H322.825C323.439 299.56 324.371 298.492 325.621 297.685C326.871 296.867 328.484 296.458 330.461 296.458C332.234 296.458 333.785 296.821 335.115 297.549C336.444 298.265 337.479 299.355 338.217 300.821C338.956 302.276 339.325 304.117 339.325 306.344V322.98H335.302V306.617C335.302 304.56 334.768 302.958 333.7 301.81C332.632 300.651 331.166 300.071 329.302 300.071C328.018 300.071 326.871 300.35 325.859 300.907C324.859 301.463 324.069 302.276 323.49 303.344C322.91 304.412 322.621 305.708 322.621 307.23ZM357.312 323.526C354.858 323.526 352.744 322.946 350.971 321.787C349.199 320.628 347.835 319.032 346.881 316.998C345.926 314.963 345.449 312.64 345.449 310.026C345.449 307.367 345.937 305.02 346.915 302.986C347.903 300.941 349.278 299.344 351.04 298.196C352.812 297.037 354.881 296.458 357.244 296.458C359.085 296.458 360.744 296.799 362.221 297.48C363.699 298.162 364.909 299.117 365.852 300.344C366.795 301.571 367.381 303.003 367.608 304.64H363.585C363.278 303.446 362.596 302.39 361.54 301.469C360.494 300.537 359.085 300.071 357.312 300.071C355.744 300.071 354.369 300.48 353.187 301.299C352.017 302.105 351.102 303.248 350.443 304.725C349.795 306.191 349.471 307.912 349.471 309.89C349.471 311.912 349.79 313.674 350.426 315.174C351.074 316.674 351.983 317.838 353.153 318.668C354.335 319.498 355.721 319.912 357.312 319.912C358.358 319.912 359.307 319.73 360.159 319.367C361.011 319.003 361.733 318.48 362.324 317.799C362.915 317.117 363.335 316.299 363.585 315.344H367.608C367.381 316.89 366.818 318.282 365.92 319.52C365.034 320.748 363.858 321.725 362.392 322.452C360.937 323.168 359.244 323.526 357.312 323.526ZM376.079 332.799C375.398 332.799 374.79 332.742 374.256 332.628C373.721 332.526 373.352 332.424 373.148 332.321L374.17 328.776C375.148 329.026 376.011 329.117 376.761 329.049C377.511 328.98 378.176 328.645 378.756 328.043C379.346 327.452 379.886 326.492 380.375 325.162L381.125 323.117L371.443 296.799H375.807L383.034 317.662H383.307L390.534 296.799H394.898L383.784 326.799C383.284 328.151 382.665 329.27 381.926 330.157C381.187 331.054 380.329 331.719 379.352 332.151C378.386 332.583 377.295 332.799 376.079 332.799Z" fill="#424530"/>
</svg>
