<svg width="27" height="28" viewBox="0 0 27 28" fill="none" xmlns="http://www.w3.org/2000/svg">
<path d="M22.6658 0.0371957C22.3713 0.143833 22.1936 0.306595 21.3864 1.2046L20.5334 2.14749L22.3764 4.18483L24.2194 6.22217L25.0673 5.27366C25.9862 4.24096 26.1233 4.02207 26.1334 3.50572C26.1334 3.34296 26.1081 3.08478 26.0674 2.93324C26.0065 2.68068 25.8999 2.54037 24.9302 1.45716C24.2042 0.643345 23.7878 0.228021 23.6305 0.143833C23.3868 0.00913286 22.8892 -0.0413795 22.6658 0.0371957Z" fill="#E2D1C1"/>
<path d="M1.19356 3.17148C0.756926 3.30869 0.320289 3.73128 0.133159 4.20875L0.0188016 4.5106L0.00320743 15.3223C-0.00718868 22.1551 0.00840549 26.2602 0.0395938 26.4798C0.133159 27.1054 0.491825 27.6323 1.00123 27.8738L1.26634 28H11.8184H22.3704L22.6355 27.8738C23.1346 27.6378 23.4984 27.1164 23.592 26.5127C23.6492 26.1615 23.6648 9.25787 23.6128 9.25787C23.5972 9.25787 21.0034 11.9855 17.8533 15.3223C12.4006 21.1014 12.1147 21.3977 11.7924 21.5459C11.6053 21.6337 10.5085 22.0344 9.34931 22.435L7.2441 23.1649L6.7243 23.1704C6.24607 23.1704 6.1733 23.1539 5.86662 23.0003C5.44557 22.7862 5.1129 22.4734 4.89458 22.0947C4.70745 21.7599 4.5671 21.2605 4.5671 20.9093C4.5671 20.783 4.8322 19.5482 5.15968 18.1707C5.62231 16.2114 5.79904 15.5693 5.94979 15.2455C6.15771 14.79 5.97577 14.993 14.5734 5.86618L17.1724 3.11111L9.27134 3.1166C4.35398 3.1166 1.30272 3.13855 1.19356 3.17148Z" fill="#E2D1C1"/>
<path d="M14.0309 8.90519L8.71118 14.6994L10.5419 16.6802L12.3777 18.6665L12.6363 18.3922C12.7783 18.2385 15.172 15.6322 17.9561 12.5979L23.0223 7.08351L21.1865 5.09723L19.3456 3.11095L14.0309 8.90519Z" fill="#E2D1C1"/>
<path d="M6.77703 18.4258C6.4062 19.8301 6.20141 20.7156 6.22355 20.7837C6.28443 20.9619 6.53903 21.1558 6.71061 21.1558C6.84345 21.1558 11.0443 19.893 11.1993 19.8039C11.2436 19.7829 7.47994 16.178 7.40799 16.178C7.38585 16.178 7.10358 17.1893 6.77703 18.4258Z" fill="#E2D1C1"/>
</svg>
