<svg width="45" height="45" viewBox="0 0 45 45" fill="none" xmlns="http://www.w3.org/2000/svg">
<path d="M27.1415 21.9359L20.1748 18.1453C19.8895 17.9829 18.9121 18.189 18.9121 18.5171V25.9078C18.9121 26.2318 19.8815 26.4386 20.1668 26.2854L27.4441 22.6838C27.7401 22.5239 27.4335 22.101 27.1415 21.9359Z" fill="#E2D1C1"/>
<path d="M36.988 25.8951C36.988 29.4003 34.1466 32.2415 30.6426 32.2415H14.4133C10.908 32.2415 8.06667 29.4003 8.06667 25.8951V18.3431C8.06667 14.8374 10.908 11.9962 14.4133 11.9962H30.6426C34.1466 11.9962 36.988 14.8374 36.988 18.3431V25.8951ZM22.1173 0.00139999C9.90265 0.00139999 0 9.90406 0 22.1191C0 34.3337 9.90265 44.2363 22.1173 44.2363C34.332 44.2363 44.2333 34.3337 44.2333 22.1191C44.2333 9.90406 34.332 0.00139999 22.1173 0.00139999Z" fill="#E2D1C1"/>
</svg>
