<svg width="131" height="131" viewBox="0 0 131 131" fill="none" xmlns="http://www.w3.org/2000/svg">
<circle cx="65.5" cy="65.5" r="64.5" stroke="#E2D1C1" stroke-width="2"/>
<path d="M69.12 98C68.2667 98 67.52 97.7067 66.88 97.12C66.2933 96.5333 66 95.7867 66 94.88V42.88L58 45.68C57.4133 45.9467 56.88 46.08 56.4 46.08C55.4933 46.08 54.7467 45.7867 54.16 45.2C53.5733 44.6133 53.28 43.8933 53.28 43.04C53.28 42.4 53.4133 41.8133 53.68 41.28C54 40.7467 54.5333 40.3467 55.28 40.08L67.6 35.84C67.8667 35.7333 68.1333 35.6533 68.4 35.6C68.72 35.4933 68.9867 35.44 69.2 35.44C70.1067 35.44 70.8267 35.76 71.36 36.4C71.9467 36.9867 72.24 37.7067 72.24 38.56V94.88C72.24 95.7867 71.9467 96.5333 71.36 97.12C70.7733 97.7067 70.0267 98 69.12 98Z" fill="#E2D1C1"/>
</svg>
