<svg width="45" height="45" viewBox="0 0 45 45" fill="none" xmlns="http://www.w3.org/2000/svg">
<path d="M28.8322 25.3142C28.4362 26.2757 27.4508 26.8943 26.4521 27.0834C25.4988 27.2647 24.7122 26.961 23.8295 26.6689C23.0415 26.409 22.2801 26.0303 21.5748 25.597C20.1615 24.7314 18.9402 23.573 17.9602 22.2407C17.6602 21.8329 17.3815 21.4101 17.1268 20.973C16.7868 20.3943 16.4855 19.7861 16.3282 19.1339C16.2629 18.8621 16.2282 18.5825 16.2242 18.3006C16.2135 17.3126 16.5908 16.3158 17.3721 15.6793C17.8255 15.3101 18.4948 15.1491 19.0028 15.4366C19.5561 15.7491 19.8428 16.5355 20.0988 17.0877C20.2988 17.5194 20.5268 18.0877 20.4441 18.573C20.3615 19.0569 19.9775 19.4662 19.6708 19.8262C19.4655 20.0689 19.4335 20.2757 19.6055 20.5382C20.6175 22.2246 22.0228 23.4501 23.8575 24.1809C24.1068 24.2809 24.3002 24.2501 24.4628 24.0486C24.7802 23.6579 25.0921 22.8943 25.5801 22.6943C26.2175 22.4329 26.9202 22.7943 27.4615 23.1183C27.9642 23.4183 28.8068 23.7886 28.9428 24.4101C29.0082 24.7115 28.9495 25.0287 28.8322 25.3142ZM22.5748 10.6397C16.7015 10.6397 11.9229 15.4167 11.9229 21.2913C11.9229 23.2303 12.4615 25.1397 13.4815 26.8142L13.7575 27.2673L12.6935 31.2397L16.6868 30.1689L17.1375 30.4366C18.7908 31.422 20.6708 31.9434 22.5748 31.9434C28.4481 31.9434 33.2268 27.1647 33.2268 21.2913C33.2268 15.4167 28.4481 10.6397 22.5748 10.6397Z" fill="#E2D1C1"/>
<path d="M22.5747 34.427C20.4013 34.427 18.2534 33.8775 16.332 32.8348L9.18138 34.7509L11.088 27.6374C10.008 25.6894 9.44004 23.5071 9.44004 21.2921C9.44004 14.0494 15.3333 8.15606 22.5747 8.15606C29.8173 8.15606 35.7107 14.0494 35.7107 21.2921C35.7107 28.5337 29.8173 34.427 22.5747 34.427ZM22.1174 0.00139999C9.90272 0.00139999 0 9.90406 0 22.1191C0 34.3337 9.90272 44.2363 22.1174 44.2363C34.332 44.2363 44.2347 34.3337 44.2347 22.1191C44.2347 9.90406 34.332 0.00139999 22.1174 0.00139999Z" fill="#E2D1C1"/>
</svg>
