<svg width="535" height="535" viewBox="0 0 535 535" fill="none" xmlns="http://www.w3.org/2000/svg">
<circle cx="267.5" cy="267.5" r="267.5" fill="#FBF6F3"/>
<mask id="path-2-inside-1_442_7" fill="white">
<path d="M140.994 198.296C154.877 168.218 178.207 143.5 207.433 127.903C236.658 112.305 270.179 106.682 302.894 111.89C335.61 117.097 365.728 132.85 388.666 156.751C411.604 180.652 426.106 211.392 429.965 244.294C433.824 277.195 426.829 310.457 410.044 339.017C393.258 367.577 367.602 389.871 336.98 402.507C306.357 415.144 272.445 417.43 240.404 409.018C208.362 400.606 179.946 381.957 159.479 355.908L163.427 352.807C183.218 377.995 210.695 396.028 241.678 404.162C272.661 412.296 305.454 410.086 335.065 397.867C364.676 385.648 389.485 364.09 405.715 336.473C421.946 308.857 428.711 276.694 424.979 244.879C421.248 213.064 407.225 183.339 385.044 160.227C362.864 137.116 333.74 121.883 302.105 116.848C270.47 111.812 238.057 117.249 209.796 132.332C181.536 147.414 158.977 171.316 145.552 200.4L140.994 198.296Z"/>
</mask>
<path d="M140.994 198.296C154.877 168.218 178.207 143.5 207.433 127.903C236.658 112.305 270.179 106.682 302.894 111.89C335.61 117.097 365.728 132.85 388.666 156.751C411.604 180.652 426.106 211.392 429.965 244.294C433.824 277.195 426.829 310.457 410.044 339.017C393.258 367.577 367.602 389.871 336.98 402.507C306.357 415.144 272.445 417.43 240.404 409.018C208.362 400.606 179.946 381.957 159.479 355.908L163.427 352.807C183.218 377.995 210.695 396.028 241.678 404.162C272.661 412.296 305.454 410.086 335.065 397.867C364.676 385.648 389.485 364.09 405.715 336.473C421.946 308.857 428.711 276.694 424.979 244.879C421.248 213.064 407.225 183.339 385.044 160.227C362.864 137.116 333.74 121.883 302.105 116.848C270.47 111.812 238.057 117.249 209.796 132.332C181.536 147.414 158.977 171.316 145.552 200.4L140.994 198.296Z" stroke="#E2D1C1" stroke-width="10" mask="url(#path-2-inside-1_442_7)"/>
<path d="M347 279.601C347 318.139 421.438 320 454.433 320C487.429 320 514.177 288.758 514.177 250.22C514.177 211.681 501.075 173.094 465.963 181.051C441.332 204.924 378.968 225.123 347 279.601Z" fill="#E2D1C1"/>
<path d="M86.8721 220.701V288.951H72.8564V220.701H86.8721ZM155.591 220.701V288.951H141.528L114.106 243.201V288.951H100.044V220.701H114.106L141.575 266.498V220.701H155.591ZM203.356 271.092C203.356 269.873 203.169 268.779 202.794 267.811C202.45 266.811 201.794 265.904 200.825 265.092C199.856 264.248 198.497 263.42 196.747 262.607C194.997 261.795 192.731 260.951 189.95 260.076C186.856 259.076 183.919 257.951 181.138 256.701C178.388 255.451 175.95 253.998 173.825 252.342C171.731 250.654 170.075 248.701 168.856 246.482C167.669 244.264 167.075 241.686 167.075 238.748C167.075 235.904 167.7 233.326 168.95 231.014C170.2 228.67 171.95 226.67 174.2 225.014C176.45 223.326 179.106 222.029 182.169 221.123C185.263 220.217 188.653 219.764 192.341 219.764C197.372 219.764 201.763 220.67 205.513 222.482C209.263 224.295 212.169 226.779 214.231 229.936C216.325 233.092 217.372 236.701 217.372 240.764H203.403C203.403 238.764 202.981 237.014 202.138 235.514C201.325 233.982 200.075 232.779 198.388 231.904C196.731 231.029 194.638 230.592 192.106 230.592C189.669 230.592 187.638 230.967 186.013 231.717C184.388 232.436 183.169 233.42 182.356 234.67C181.544 235.889 181.138 237.264 181.138 238.795C181.138 239.951 181.419 240.998 181.981 241.936C182.575 242.873 183.45 243.748 184.606 244.561C185.763 245.373 187.185 246.139 188.872 246.857C190.56 247.576 192.513 248.279 194.731 248.967C198.45 250.092 201.716 251.357 204.528 252.764C207.372 254.17 209.747 255.748 211.653 257.498C213.56 259.248 214.997 261.232 215.966 263.451C216.935 265.67 217.419 268.186 217.419 270.998C217.419 273.967 216.841 276.623 215.685 278.967C214.528 281.311 212.856 283.295 210.669 284.92C208.481 286.545 205.872 287.779 202.841 288.623C199.81 289.467 196.419 289.889 192.669 289.889C189.294 289.889 185.966 289.451 182.685 288.576C179.403 287.67 176.419 286.311 173.731 284.498C171.075 282.686 168.95 280.373 167.356 277.561C165.763 274.748 164.966 271.42 164.966 267.576H179.075C179.075 269.701 179.403 271.498 180.06 272.967C180.716 274.436 181.638 275.623 182.825 276.529C184.044 277.436 185.481 278.092 187.138 278.498C188.825 278.904 190.669 279.107 192.669 279.107C195.106 279.107 197.106 278.764 198.669 278.076C200.263 277.389 201.435 276.436 202.185 275.217C202.966 273.998 203.356 272.623 203.356 271.092ZM241.935 220.701V288.951H227.919V220.701H241.935ZM309.2 253.279V280.326C308.138 281.607 306.497 282.998 304.278 284.498C302.06 285.967 299.2 287.232 295.7 288.295C292.2 289.357 287.966 289.889 282.997 289.889C278.591 289.889 274.575 289.17 270.95 287.732C267.325 286.264 264.2 284.123 261.575 281.311C258.981 278.498 256.981 275.061 255.575 270.998C254.169 266.904 253.466 262.232 253.466 256.982V252.717C253.466 247.467 254.138 242.795 255.481 238.701C256.856 234.607 258.81 231.154 261.341 228.342C263.872 225.529 266.888 223.389 270.388 221.92C273.888 220.451 277.778 219.717 282.06 219.717C287.997 219.717 292.872 220.686 296.685 222.623C300.497 224.529 303.403 227.186 305.403 230.592C307.435 233.967 308.685 237.842 309.153 242.217H295.513C295.169 239.904 294.513 237.889 293.544 236.17C292.575 234.451 291.185 233.107 289.372 232.139C287.591 231.17 285.278 230.686 282.435 230.686C280.091 230.686 277.997 231.17 276.153 232.139C274.341 233.076 272.81 234.467 271.56 236.311C270.31 238.154 269.356 240.436 268.7 243.154C268.044 245.873 267.716 249.029 267.716 252.623V256.982C267.716 260.545 268.06 263.701 268.747 266.451C269.435 269.17 270.45 271.467 271.794 273.342C273.169 275.186 274.856 276.576 276.856 277.514C278.856 278.451 281.185 278.92 283.841 278.92C286.06 278.92 287.903 278.732 289.372 278.357C290.872 277.982 292.075 277.529 292.981 276.998C293.919 276.436 294.638 275.904 295.138 275.404V263.311H282.294V253.279H309.2ZM366.06 248.498V259.467H330.435V248.498H366.06ZM334.606 220.701V288.951H320.544V220.701H334.606ZM376.091 220.701V288.951H362.075V220.701H376.091ZM417.435 220.701V288.951H403.419V220.701H417.435ZM438.435 220.701V231.717H382.747V220.701H438.435ZM481.231 271.092C481.231 269.873 481.044 268.779 480.669 267.811C480.325 266.811 479.669 265.904 478.7 265.092C477.731 264.248 476.372 263.42 474.622 262.607C472.872 261.795 470.606 260.951 467.825 260.076C464.731 259.076 461.794 257.951 459.013 256.701C456.263 255.451 453.825 253.998 451.7 252.342C449.606 250.654 447.95 248.701 446.731 246.482C445.544 244.264 444.95 241.686 444.95 238.748C444.95 235.904 445.575 233.326 446.825 231.014C448.075 228.67 449.825 226.67 452.075 225.014C454.325 223.326 456.981 222.029 460.044 221.123C463.138 220.217 466.528 219.764 470.216 219.764C475.247 219.764 479.638 220.67 483.388 222.482C487.138 224.295 490.044 226.779 492.106 229.936C494.2 233.092 495.247 236.701 495.247 240.764H481.278C481.278 238.764 480.856 237.014 480.013 235.514C479.2 233.982 477.95 232.779 476.263 231.904C474.606 231.029 472.513 230.592 469.981 230.592C467.544 230.592 465.513 230.967 463.888 231.717C462.263 232.436 461.044 233.42 460.231 234.67C459.419 235.889 459.013 237.264 459.013 238.795C459.013 239.951 459.294 240.998 459.856 241.936C460.45 242.873 461.325 243.748 462.481 244.561C463.638 245.373 465.06 246.139 466.747 246.857C468.435 247.576 470.388 248.279 472.606 248.967C476.325 250.092 479.591 251.357 482.403 252.764C485.247 254.17 487.622 255.748 489.528 257.498C491.435 259.248 492.872 261.232 493.841 263.451C494.81 265.67 495.294 268.186 495.294 270.998C495.294 273.967 494.716 276.623 493.56 278.967C492.403 281.311 490.731 283.295 488.544 284.92C486.356 286.545 483.747 287.779 480.716 288.623C477.685 289.467 474.294 289.889 470.544 289.889C467.169 289.889 463.841 289.451 460.56 288.576C457.278 287.67 454.294 286.311 451.606 284.498C448.95 282.686 446.825 280.373 445.231 277.561C443.638 274.748 442.841 271.42 442.841 267.576H456.95C456.95 269.701 457.278 271.498 457.935 272.967C458.591 274.436 459.513 275.623 460.7 276.529C461.919 277.436 463.356 278.092 465.013 278.498C466.7 278.904 468.544 279.107 470.544 279.107C472.981 279.107 474.981 278.764 476.544 278.076C478.138 277.389 479.31 276.436 480.06 275.217C480.841 273.998 481.231 272.623 481.231 271.092Z" fill="#424530"/>
<path d="M70.0525 334.932V300.023H91.1206V303.773H74.2797V315.568H90.0297V319.318H74.2797V331.182H91.3934V334.932H70.0525ZM116.74 314.614L113.126 315.637C112.899 315.034 112.564 314.449 112.121 313.881C111.689 313.301 111.098 312.824 110.348 312.449C109.598 312.074 108.638 311.887 107.467 311.887C105.865 311.887 104.53 312.256 103.462 312.995C102.405 313.722 101.876 314.648 101.876 315.773C101.876 316.773 102.24 317.563 102.967 318.142C103.695 318.722 104.831 319.205 106.376 319.591L110.263 320.546C112.604 321.114 114.348 321.983 115.496 323.154C116.643 324.313 117.217 325.807 117.217 327.637C117.217 329.137 116.785 330.478 115.922 331.659C115.07 332.841 113.876 333.773 112.342 334.455C110.808 335.137 109.024 335.478 106.99 335.478C104.32 335.478 102.109 334.898 100.359 333.739C98.6093 332.58 97.5013 330.887 97.0354 328.659L100.854 327.705C101.217 329.114 101.905 330.171 102.916 330.875C103.939 331.58 105.274 331.932 106.922 331.932C108.797 331.932 110.285 331.534 111.388 330.739C112.501 329.932 113.058 328.966 113.058 327.841C113.058 326.932 112.74 326.171 112.104 325.557C111.467 324.932 110.49 324.466 109.172 324.159L104.808 323.137C102.41 322.568 100.649 321.688 99.5241 320.495C98.4104 319.29 97.8536 317.784 97.8536 315.978C97.8536 314.5 98.2684 313.193 99.0979 312.057C99.9388 310.921 101.081 310.029 102.524 309.381C103.979 308.733 105.626 308.409 107.467 308.409C110.058 308.409 112.092 308.978 113.57 310.114C115.058 311.25 116.115 312.75 116.74 314.614ZM134.659 308.75V312.159H121.091V308.75H134.659ZM125.045 302.478H129.068V327.432C129.068 328.568 129.233 329.421 129.562 329.989C129.903 330.546 130.335 330.921 130.858 331.114C131.392 331.296 131.954 331.387 132.545 331.387C132.989 331.387 133.352 331.364 133.636 331.318C133.92 331.262 134.148 331.216 134.318 331.182L135.136 334.796C134.864 334.898 134.483 335 133.994 335.103C133.506 335.216 132.886 335.273 132.136 335.273C131 335.273 129.886 335.029 128.795 334.54C127.716 334.051 126.818 333.307 126.102 332.307C125.398 331.307 125.045 330.046 125.045 328.523V302.478ZM148.415 335.546C146.756 335.546 145.25 335.233 143.898 334.608C142.545 333.972 141.472 333.057 140.676 331.864C139.881 330.659 139.483 329.205 139.483 327.5C139.483 326 139.778 324.784 140.369 323.853C140.96 322.909 141.75 322.171 142.739 321.637C143.727 321.103 144.818 320.705 146.011 320.443C147.216 320.171 148.426 319.955 149.642 319.796C151.233 319.591 152.523 319.438 153.511 319.336C154.511 319.222 155.239 319.034 155.693 318.773C156.159 318.512 156.392 318.057 156.392 317.409V317.273C156.392 315.591 155.932 314.284 155.011 313.353C154.102 312.421 152.722 311.955 150.869 311.955C148.949 311.955 147.443 312.375 146.352 313.216C145.261 314.057 144.494 314.955 144.051 315.909L140.233 314.546C140.915 312.955 141.824 311.716 142.96 310.83C144.108 309.932 145.358 309.307 146.71 308.955C148.074 308.591 149.415 308.409 150.733 308.409C151.574 308.409 152.54 308.512 153.631 308.716C154.733 308.909 155.795 309.313 156.818 309.926C157.852 310.54 158.71 311.466 159.392 312.705C160.074 313.943 160.415 315.603 160.415 317.682V334.932H156.392V331.387H156.187C155.915 331.955 155.46 332.563 154.824 333.211C154.187 333.858 153.341 334.409 152.284 334.864C151.227 335.318 149.937 335.546 148.415 335.546ZM149.028 331.932C150.619 331.932 151.96 331.62 153.051 330.995C154.153 330.37 154.983 329.563 155.54 328.574C156.108 327.586 156.392 326.546 156.392 325.455V321.773C156.222 321.978 155.847 322.165 155.267 322.336C154.699 322.495 154.04 322.637 153.29 322.762C152.551 322.875 151.829 322.978 151.125 323.068C150.432 323.148 149.869 323.216 149.437 323.273C148.392 323.409 147.415 323.631 146.506 323.938C145.608 324.233 144.881 324.682 144.324 325.284C143.778 325.875 143.506 326.682 143.506 327.705C143.506 329.103 144.023 330.159 145.057 330.875C146.102 331.58 147.426 331.932 149.028 331.932ZM179.143 308.75V312.159H165.575V308.75H179.143ZM169.53 302.478H173.552V327.432C173.552 328.568 173.717 329.421 174.047 329.989C174.388 330.546 174.82 330.921 175.342 331.114C175.876 331.296 176.439 331.387 177.03 331.387C177.473 331.387 177.837 331.364 178.121 331.318C178.405 331.262 178.632 331.216 178.802 331.182L179.621 334.796C179.348 334.898 178.967 335 178.479 335.103C177.99 335.216 177.371 335.273 176.621 335.273C175.484 335.273 174.371 335.029 173.28 334.54C172.2 334.051 171.302 333.307 170.587 332.307C169.882 331.307 169.53 330.046 169.53 328.523V302.478ZM195.891 335.478C193.368 335.478 191.192 334.921 189.362 333.807C187.544 332.682 186.141 331.114 185.152 329.103C184.175 327.08 183.686 324.728 183.686 322.046C183.686 319.364 184.175 317 185.152 314.955C186.141 312.898 187.516 311.296 189.277 310.148C191.05 308.989 193.118 308.409 195.481 308.409C196.845 308.409 198.192 308.637 199.521 309.091C200.851 309.546 202.061 310.284 203.152 311.307C204.243 312.318 205.112 313.659 205.76 315.33C206.408 317 206.731 319.057 206.731 321.5V323.205H186.55V319.728H202.641C202.641 318.25 202.345 316.932 201.754 315.773C201.175 314.614 200.345 313.699 199.266 313.029C198.197 312.358 196.936 312.023 195.481 312.023C193.879 312.023 192.493 312.421 191.322 313.216C190.163 314 189.271 315.023 188.646 316.284C188.021 317.546 187.709 318.898 187.709 320.341V322.659C187.709 324.637 188.05 326.313 188.731 327.688C189.425 329.051 190.385 330.091 191.612 330.807C192.839 331.512 194.266 331.864 195.891 331.864C196.947 331.864 197.902 331.716 198.754 331.421C199.618 331.114 200.362 330.659 200.987 330.057C201.612 329.443 202.095 328.682 202.436 327.773L206.322 328.864C205.913 330.182 205.226 331.341 204.26 332.341C203.294 333.33 202.101 334.103 200.68 334.659C199.26 335.205 197.663 335.478 195.891 335.478ZM234.055 335.546C232.396 335.546 230.891 335.233 229.538 334.608C228.186 333.972 227.112 333.057 226.317 331.864C225.521 330.659 225.123 329.205 225.123 327.5C225.123 326 225.419 324.784 226.01 323.853C226.601 322.909 227.391 322.171 228.379 321.637C229.368 321.103 230.459 320.705 231.652 320.443C232.856 320.171 234.067 319.955 235.283 319.796C236.873 319.591 238.163 319.438 239.152 319.336C240.152 319.222 240.879 319.034 241.334 318.773C241.8 318.512 242.033 318.057 242.033 317.409V317.273C242.033 315.591 241.572 314.284 240.652 313.353C239.743 312.421 238.362 311.955 236.51 311.955C234.589 311.955 233.084 312.375 231.993 313.216C230.902 314.057 230.135 314.955 229.692 315.909L225.873 314.546C226.555 312.955 227.464 311.716 228.601 310.83C229.748 309.932 230.998 309.307 232.351 308.955C233.714 308.591 235.055 308.409 236.373 308.409C237.214 308.409 238.18 308.512 239.271 308.716C240.373 308.909 241.436 309.313 242.459 309.926C243.493 310.54 244.351 311.466 245.033 312.705C245.714 313.943 246.055 315.603 246.055 317.682V334.932H242.033V331.387H241.828C241.555 331.955 241.101 332.563 240.464 333.211C239.828 333.858 238.981 334.409 237.925 334.864C236.868 335.318 235.578 335.546 234.055 335.546ZM234.669 331.932C236.26 331.932 237.601 331.62 238.692 330.995C239.794 330.37 240.623 329.563 241.18 328.574C241.748 327.586 242.033 326.546 242.033 325.455V321.773C241.862 321.978 241.487 322.165 240.908 322.336C240.339 322.495 239.68 322.637 238.93 322.762C238.192 322.875 237.47 322.978 236.766 323.068C236.072 323.148 235.51 323.216 235.078 323.273C234.033 323.409 233.055 323.631 232.146 323.938C231.248 324.233 230.521 324.682 229.964 325.284C229.419 325.875 229.146 326.682 229.146 327.705C229.146 329.103 229.663 330.159 230.697 330.875C231.743 331.58 233.067 331.932 234.669 331.932ZM263.966 345.296C262.023 345.296 260.352 345.046 258.954 344.546C257.557 344.057 256.392 343.409 255.46 342.603C254.54 341.807 253.807 340.955 253.261 340.046L256.466 337.796C256.829 338.273 257.29 338.818 257.847 339.432C258.403 340.057 259.165 340.597 260.131 341.051C261.108 341.517 262.386 341.75 263.966 341.75C266.079 341.75 267.824 341.239 269.199 340.216C270.574 339.193 271.261 337.591 271.261 335.409V330.091H270.92C270.625 330.568 270.204 331.159 269.659 331.864C269.125 332.557 268.352 333.176 267.341 333.722C266.341 334.256 264.989 334.523 263.284 334.523C261.17 334.523 259.273 334.023 257.591 333.023C255.92 332.023 254.597 330.568 253.619 328.659C252.653 326.75 252.17 324.432 252.17 321.705C252.17 319.023 252.642 316.688 253.585 314.699C254.528 312.699 255.841 311.154 257.523 310.063C259.204 308.961 261.148 308.409 263.352 308.409C265.057 308.409 266.409 308.693 267.409 309.262C268.42 309.818 269.193 310.455 269.727 311.171C270.273 311.875 270.693 312.455 270.989 312.909H271.398V308.75H275.284V335.682C275.284 337.932 274.773 339.762 273.75 341.171C272.739 342.591 271.375 343.631 269.659 344.29C267.954 344.961 266.057 345.296 263.966 345.296ZM263.829 330.909C265.443 330.909 266.807 330.54 267.92 329.801C269.034 329.063 269.881 328 270.46 326.614C271.04 325.228 271.329 323.568 271.329 321.637C271.329 319.75 271.045 318.086 270.477 316.642C269.909 315.199 269.068 314.068 267.954 313.25C266.841 312.432 265.466 312.023 263.829 312.023C262.125 312.023 260.704 312.455 259.568 313.318C258.443 314.182 257.597 315.341 257.028 316.796C256.472 318.25 256.193 319.864 256.193 321.637C256.193 323.455 256.477 325.063 257.045 326.461C257.625 327.847 258.477 328.938 259.602 329.733C260.739 330.517 262.148 330.909 263.829 330.909ZM293.625 335.478C291.102 335.478 288.926 334.921 287.097 333.807C285.278 332.682 283.875 331.114 282.886 329.103C281.909 327.08 281.42 324.728 281.42 322.046C281.42 319.364 281.909 317 282.886 314.955C283.875 312.898 285.25 311.296 287.011 310.148C288.784 308.989 290.852 308.409 293.216 308.409C294.579 308.409 295.926 308.637 297.256 309.091C298.585 309.546 299.795 310.284 300.886 311.307C301.977 312.318 302.847 313.659 303.494 315.33C304.142 317 304.466 319.057 304.466 321.5V323.205H284.284V319.728H300.375C300.375 318.25 300.079 316.932 299.489 315.773C298.909 314.614 298.079 313.699 297 313.029C295.932 312.358 294.67 312.023 293.216 312.023C291.614 312.023 290.227 312.421 289.057 313.216C287.898 314 287.006 315.023 286.381 316.284C285.756 317.546 285.443 318.898 285.443 320.341V322.659C285.443 324.637 285.784 326.313 286.466 327.688C287.159 329.051 288.119 330.091 289.347 330.807C290.574 331.512 292 331.864 293.625 331.864C294.682 331.864 295.636 331.716 296.489 331.421C297.352 331.114 298.097 330.659 298.722 330.057C299.347 329.443 299.829 328.682 300.17 327.773L304.057 328.864C303.648 330.182 302.96 331.341 301.994 332.341C301.028 333.33 299.835 334.103 298.415 334.659C296.994 335.205 295.398 335.478 293.625 335.478ZM314.608 319.182V334.932H310.585V308.75H314.472V312.841H314.812C315.426 311.512 316.358 310.443 317.608 309.637C318.858 308.818 320.472 308.409 322.449 308.409C324.222 308.409 325.773 308.773 327.102 309.5C328.432 310.216 329.466 311.307 330.204 312.773C330.943 314.228 331.312 316.068 331.312 318.296V334.932H327.29V318.568C327.29 316.512 326.756 314.909 325.687 313.762C324.619 312.603 323.153 312.023 321.29 312.023C320.006 312.023 318.858 312.301 317.847 312.858C316.847 313.415 316.057 314.228 315.477 315.296C314.898 316.364 314.608 317.659 314.608 319.182ZM349.3 335.478C346.845 335.478 344.731 334.898 342.959 333.739C341.186 332.58 339.822 330.983 338.868 328.949C337.913 326.915 337.436 324.591 337.436 321.978C337.436 319.318 337.925 316.972 338.902 314.938C339.891 312.892 341.266 311.296 343.027 310.148C344.8 308.989 346.868 308.409 349.231 308.409C351.072 308.409 352.731 308.75 354.209 309.432C355.686 310.114 356.896 311.068 357.839 312.296C358.783 313.523 359.368 314.955 359.595 316.591H355.572C355.266 315.398 354.584 314.341 353.527 313.421C352.481 312.489 351.072 312.023 349.3 312.023C347.731 312.023 346.356 312.432 345.175 313.25C344.004 314.057 343.089 315.199 342.43 316.676C341.783 318.142 341.459 319.864 341.459 321.841C341.459 323.864 341.777 325.625 342.413 327.125C343.061 328.625 343.97 329.79 345.141 330.62C346.322 331.449 347.709 331.864 349.3 331.864C350.345 331.864 351.294 331.682 352.146 331.318C352.998 330.955 353.72 330.432 354.311 329.75C354.902 329.068 355.322 328.25 355.572 327.296H359.595C359.368 328.841 358.805 330.233 357.908 331.472C357.021 332.699 355.845 333.676 354.379 334.404C352.925 335.12 351.231 335.478 349.3 335.478ZM368.067 344.75C367.385 344.75 366.777 344.693 366.243 344.58C365.709 344.478 365.339 344.375 365.135 344.273L366.158 340.728C367.135 340.978 367.998 341.068 368.748 341C369.498 340.932 370.163 340.597 370.743 339.995C371.334 339.404 371.873 338.443 372.362 337.114L373.112 335.068L363.43 308.75H367.794L375.021 329.614H375.294L382.521 308.75H386.885L375.771 338.75C375.271 340.103 374.652 341.222 373.913 342.108C373.175 343.006 372.317 343.671 371.339 344.103C370.373 344.534 369.283 344.75 368.067 344.75Z" fill="#424530"/>
</svg>
