<svg width="693" height="543" viewBox="0 0 693 543" fill="none" xmlns="http://www.w3.org/2000/svg">
<ellipse cx="267.5" cy="271.5" rx="267.5" ry="271.5" transform="matrix(-1 0 0 1 535 0)" fill="#FBF6F3"/>
<mask id="path-2-inside-1_458_3" fill="white">
<path d="M431.763 184.581C413.101 156.816 386.009 135.997 354.608 125.289C323.208 114.582 289.218 114.574 257.813 125.266C226.407 135.958 199.305 156.765 180.63 184.52C161.955 212.275 152.731 245.459 154.36 279.021C155.989 312.584 168.383 344.688 189.656 370.448C210.928 396.208 239.915 414.213 272.204 421.723C304.493 429.234 338.317 425.838 368.529 412.053C398.74 398.269 423.685 374.85 439.568 345.36L435.162 342.918C419.804 371.434 395.683 394.08 366.469 407.409C337.256 420.738 304.549 424.022 273.326 416.759C242.103 409.497 214.074 392.087 193.504 367.178C172.934 342.269 160.95 311.225 159.374 278.771C157.799 246.317 166.719 214.229 184.777 187.39C202.835 160.552 229.042 140.433 259.41 130.094C289.778 119.755 322.645 119.763 353.009 130.116C383.372 140.47 409.57 160.602 427.615 187.449L431.763 184.581Z"/>
</mask>
<path d="M431.763 184.581C413.101 156.816 386.009 135.997 354.608 125.289C323.208 114.582 289.218 114.574 257.813 125.266C226.407 135.958 199.305 156.765 180.63 184.52C161.955 212.275 152.731 245.459 154.36 279.021C155.989 312.584 168.383 344.688 189.656 370.448C210.928 396.208 239.915 414.213 272.204 421.723C304.493 429.234 338.317 425.838 368.529 412.053C398.74 398.269 423.685 374.85 439.568 345.36L435.162 342.918C419.804 371.434 395.683 394.08 366.469 407.409C337.256 420.738 304.549 424.022 273.326 416.759C242.103 409.497 214.074 392.087 193.504 367.178C172.934 342.269 160.95 311.225 159.374 278.771C157.799 246.317 166.719 214.229 184.777 187.39C202.835 160.552 229.042 140.433 259.41 130.094C289.778 119.755 322.645 119.763 353.009 130.116C383.372 140.47 409.57 160.602 427.615 187.449L431.763 184.581Z" stroke="#E2D1C1" stroke-width="10" mask="url(#path-2-inside-1_458_3)"/>
<path d="M265 318.12C265 362.239 180.4 364.369 142.9 364.369C105.4 364.369 75 328.604 75 284.485C75 240.366 89.8903 196.192 129.796 205.301C157.79 232.63 228.668 255.755 265 318.12Z" fill="#E2D1C1"/>
<path d="M121.885 223.833V292.083H107.869V223.833H121.885ZM190.604 223.833V292.083H176.541L149.119 246.333V292.083H135.057V223.833H149.119L176.588 269.63V223.833H190.604ZM238.369 274.224C238.369 273.005 238.182 271.911 237.807 270.942C237.463 269.942 236.807 269.036 235.838 268.224C234.869 267.38 233.51 266.552 231.76 265.739C230.01 264.927 227.744 264.083 224.963 263.208C221.869 262.208 218.932 261.083 216.151 259.833C213.401 258.583 210.963 257.13 208.838 255.474C206.744 253.786 205.088 251.833 203.869 249.614C202.682 247.396 202.088 244.817 202.088 241.88C202.088 239.036 202.713 236.458 203.963 234.146C205.213 231.802 206.963 229.802 209.213 228.146C211.463 226.458 214.119 225.161 217.182 224.255C220.276 223.349 223.666 222.896 227.354 222.896C232.385 222.896 236.776 223.802 240.526 225.614C244.276 227.427 247.182 229.911 249.244 233.067C251.338 236.224 252.385 239.833 252.385 243.896H238.416C238.416 241.896 237.994 240.146 237.151 238.646C236.338 237.114 235.088 235.911 233.401 235.036C231.744 234.161 229.651 233.724 227.119 233.724C224.682 233.724 222.651 234.099 221.026 234.849C219.401 235.567 218.182 236.552 217.369 237.802C216.557 239.021 216.151 240.396 216.151 241.927C216.151 243.083 216.432 244.13 216.994 245.067C217.588 246.005 218.463 246.88 219.619 247.692C220.776 248.505 222.197 249.271 223.885 249.989C225.572 250.708 227.526 251.411 229.744 252.099C233.463 253.224 236.729 254.489 239.541 255.896C242.385 257.302 244.76 258.88 246.666 260.63C248.572 262.38 250.01 264.364 250.979 266.583C251.947 268.802 252.432 271.317 252.432 274.13C252.432 277.099 251.854 279.755 250.697 282.099C249.541 284.442 247.869 286.427 245.682 288.052C243.494 289.677 240.885 290.911 237.854 291.755C234.822 292.599 231.432 293.021 227.682 293.021C224.307 293.021 220.979 292.583 217.697 291.708C214.416 290.802 211.432 289.442 208.744 287.63C206.088 285.817 203.963 283.505 202.369 280.692C200.776 277.88 199.979 274.552 199.979 270.708H214.088C214.088 272.833 214.416 274.63 215.072 276.099C215.729 277.567 216.651 278.755 217.838 279.661C219.057 280.567 220.494 281.224 222.151 281.63C223.838 282.036 225.682 282.239 227.682 282.239C230.119 282.239 232.119 281.896 233.682 281.208C235.276 280.521 236.447 279.567 237.197 278.349C237.979 277.13 238.369 275.755 238.369 274.224ZM276.947 223.833V292.083H262.932V223.833H276.947ZM344.213 256.411V283.458C343.151 284.739 341.51 286.13 339.291 287.63C337.072 289.099 334.213 290.364 330.713 291.427C327.213 292.489 322.979 293.021 318.01 293.021C313.604 293.021 309.588 292.302 305.963 290.864C302.338 289.396 299.213 287.255 296.588 284.442C293.994 281.63 291.994 278.192 290.588 274.13C289.182 270.036 288.479 265.364 288.479 260.114V255.849C288.479 250.599 289.151 245.927 290.494 241.833C291.869 237.739 293.822 234.286 296.354 231.474C298.885 228.661 301.901 226.521 305.401 225.052C308.901 223.583 312.791 222.849 317.072 222.849C323.01 222.849 327.885 223.817 331.697 225.755C335.51 227.661 338.416 230.317 340.416 233.724C342.447 237.099 343.697 240.974 344.166 245.349H330.526C330.182 243.036 329.526 241.021 328.557 239.302C327.588 237.583 326.197 236.239 324.385 235.271C322.604 234.302 320.291 233.817 317.447 233.817C315.104 233.817 313.01 234.302 311.166 235.271C309.354 236.208 307.822 237.599 306.572 239.442C305.322 241.286 304.369 243.567 303.713 246.286C303.057 249.005 302.729 252.161 302.729 255.755V260.114C302.729 263.677 303.072 266.833 303.76 269.583C304.447 272.302 305.463 274.599 306.807 276.474C308.182 278.317 309.869 279.708 311.869 280.646C313.869 281.583 316.197 282.052 318.854 282.052C321.072 282.052 322.916 281.864 324.385 281.489C325.885 281.114 327.088 280.661 327.994 280.13C328.932 279.567 329.651 279.036 330.151 278.536V266.442H317.307V256.411H344.213ZM401.072 251.63V262.599H365.447V251.63H401.072ZM369.619 223.833V292.083H355.557V223.833H369.619ZM411.104 223.833V292.083H397.088V223.833H411.104ZM452.447 223.833V292.083H438.432V223.833H452.447ZM473.447 223.833V234.849H417.76V223.833H473.447ZM516.244 274.224C516.244 273.005 516.057 271.911 515.682 270.942C515.338 269.942 514.682 269.036 513.713 268.224C512.744 267.38 511.385 266.552 509.635 265.739C507.885 264.927 505.619 264.083 502.838 263.208C499.744 262.208 496.807 261.083 494.026 259.833C491.276 258.583 488.838 257.13 486.713 255.474C484.619 253.786 482.963 251.833 481.744 249.614C480.557 247.396 479.963 244.817 479.963 241.88C479.963 239.036 480.588 236.458 481.838 234.146C483.088 231.802 484.838 229.802 487.088 228.146C489.338 226.458 491.994 225.161 495.057 224.255C498.151 223.349 501.541 222.896 505.229 222.896C510.26 222.896 514.651 223.802 518.401 225.614C522.151 227.427 525.057 229.911 527.119 233.067C529.213 236.224 530.26 239.833 530.26 243.896H516.291C516.291 241.896 515.869 240.146 515.026 238.646C514.213 237.114 512.963 235.911 511.276 235.036C509.619 234.161 507.526 233.724 504.994 233.724C502.557 233.724 500.526 234.099 498.901 234.849C497.276 235.567 496.057 236.552 495.244 237.802C494.432 239.021 494.026 240.396 494.026 241.927C494.026 243.083 494.307 244.13 494.869 245.067C495.463 246.005 496.338 246.88 497.494 247.692C498.651 248.505 500.072 249.271 501.76 249.989C503.447 250.708 505.401 251.411 507.619 252.099C511.338 253.224 514.604 254.489 517.416 255.896C520.26 257.302 522.635 258.88 524.541 260.63C526.447 262.38 527.885 264.364 528.854 266.583C529.822 268.802 530.307 271.317 530.307 274.13C530.307 277.099 529.729 279.755 528.572 282.099C527.416 284.442 525.744 286.427 523.557 288.052C521.369 289.677 518.76 290.911 515.729 291.755C512.697 292.599 509.307 293.021 505.557 293.021C502.182 293.021 498.854 292.583 495.572 291.708C492.291 290.802 489.307 289.442 486.619 287.63C483.963 285.817 481.838 283.505 480.244 280.692C478.651 277.88 477.854 274.552 477.854 270.708H491.963C491.963 272.833 492.291 274.63 492.947 276.099C493.604 277.567 494.526 278.755 495.713 279.661C496.932 280.567 498.369 281.224 500.026 281.63C501.713 282.036 503.557 282.239 505.557 282.239C507.994 282.239 509.994 281.896 511.557 281.208C513.151 280.521 514.322 279.567 515.072 278.349C515.854 277.13 516.244 275.755 516.244 274.224Z" fill="#424530"/>
<path d="M105.065 334.271V299.361H126.134V303.111H109.293V314.907H125.043V318.657H109.293V330.521H126.406V334.271H105.065ZM151.753 313.952L148.139 314.975C147.912 314.373 147.577 313.788 147.134 313.219C146.702 312.64 146.111 312.163 145.361 311.788C144.611 311.413 143.651 311.225 142.48 311.225C140.878 311.225 139.543 311.594 138.474 312.333C137.418 313.06 136.889 313.986 136.889 315.111C136.889 316.111 137.253 316.901 137.98 317.481C138.707 318.06 139.844 318.543 141.389 318.93L145.276 319.884C147.617 320.452 149.361 321.322 150.509 322.492C151.656 323.651 152.23 325.146 152.23 326.975C152.23 328.475 151.798 329.816 150.935 330.998C150.082 332.18 148.889 333.111 147.355 333.793C145.821 334.475 144.037 334.816 142.003 334.816C139.332 334.816 137.122 334.236 135.372 333.077C133.622 331.918 132.514 330.225 132.048 327.998L135.867 327.043C136.23 328.452 136.918 329.509 137.929 330.214C138.952 330.918 140.287 331.271 141.935 331.271C143.81 331.271 145.298 330.873 146.401 330.077C147.514 329.271 148.071 328.305 148.071 327.18C148.071 326.271 147.753 325.509 147.117 324.896C146.48 324.271 145.503 323.805 144.185 323.498L139.821 322.475C137.423 321.907 135.662 321.026 134.537 319.833C133.423 318.628 132.867 317.123 132.867 315.316C132.867 313.839 133.281 312.532 134.111 311.396C134.952 310.259 136.094 309.367 137.537 308.719C138.992 308.072 140.639 307.748 142.48 307.748C145.071 307.748 147.105 308.316 148.582 309.452C150.071 310.589 151.128 312.089 151.753 313.952ZM169.672 308.089V311.498H156.104V308.089H169.672ZM160.058 301.816H164.081V326.771C164.081 327.907 164.246 328.759 164.575 329.327C164.916 329.884 165.348 330.259 165.871 330.452C166.405 330.634 166.967 330.725 167.558 330.725C168.001 330.725 168.365 330.702 168.649 330.657C168.933 330.6 169.161 330.555 169.331 330.521L170.149 334.134C169.876 334.236 169.496 334.339 169.007 334.441C168.519 334.555 167.899 334.611 167.149 334.611C166.013 334.611 164.899 334.367 163.808 333.878C162.729 333.39 161.831 332.646 161.115 331.646C160.411 330.646 160.058 329.384 160.058 327.861V301.816ZM183.428 334.884C181.769 334.884 180.263 334.572 178.911 333.947C177.558 333.31 176.484 332.396 175.689 331.202C174.894 329.998 174.496 328.543 174.496 326.839C174.496 325.339 174.791 324.123 175.382 323.191C175.973 322.248 176.763 321.509 177.751 320.975C178.74 320.441 179.831 320.043 181.024 319.782C182.229 319.509 183.439 319.293 184.655 319.134C186.246 318.93 187.536 318.776 188.524 318.674C189.524 318.56 190.251 318.373 190.706 318.111C191.172 317.85 191.405 317.396 191.405 316.748V316.611C191.405 314.93 190.945 313.623 190.024 312.691C189.115 311.759 187.734 311.293 185.882 311.293C183.962 311.293 182.456 311.714 181.365 312.555C180.274 313.396 179.507 314.293 179.064 315.248L175.246 313.884C175.928 312.293 176.837 311.055 177.973 310.168C179.121 309.271 180.371 308.646 181.723 308.293C183.087 307.93 184.428 307.748 185.746 307.748C186.587 307.748 187.553 307.85 188.644 308.055C189.746 308.248 190.808 308.651 191.831 309.265C192.865 309.878 193.723 310.805 194.405 312.043C195.087 313.282 195.428 314.941 195.428 317.021V334.271H191.405V330.725H191.2C190.928 331.293 190.473 331.901 189.837 332.549C189.2 333.197 188.354 333.748 187.297 334.202C186.24 334.657 184.95 334.884 183.428 334.884ZM184.041 331.271C185.632 331.271 186.973 330.958 188.064 330.333C189.166 329.708 189.996 328.901 190.553 327.913C191.121 326.924 191.405 325.884 191.405 324.793V321.111C191.234 321.316 190.859 321.503 190.28 321.674C189.712 321.833 189.053 321.975 188.303 322.1C187.564 322.214 186.842 322.316 186.138 322.407C185.445 322.486 184.882 322.555 184.45 322.611C183.405 322.748 182.428 322.969 181.519 323.276C180.621 323.572 179.894 324.021 179.337 324.623C178.791 325.214 178.519 326.021 178.519 327.043C178.519 328.441 179.036 329.498 180.07 330.214C181.115 330.918 182.439 331.271 184.041 331.271ZM214.156 308.089V311.498H200.588V308.089H214.156ZM204.543 301.816H208.565V326.771C208.565 327.907 208.73 328.759 209.06 329.327C209.401 329.884 209.832 330.259 210.355 330.452C210.889 330.634 211.452 330.725 212.043 330.725C212.486 330.725 212.849 330.702 213.134 330.657C213.418 330.6 213.645 330.555 213.815 330.521L214.634 334.134C214.361 334.236 213.98 334.339 213.492 334.441C213.003 334.555 212.384 334.611 211.634 334.611C210.497 334.611 209.384 334.367 208.293 333.878C207.213 333.39 206.315 332.646 205.599 331.646C204.895 330.646 204.543 329.384 204.543 327.861V301.816ZM230.903 334.816C228.381 334.816 226.205 334.259 224.375 333.146C222.557 332.021 221.153 330.452 220.165 328.441C219.188 326.418 218.699 324.066 218.699 321.384C218.699 318.702 219.188 316.339 220.165 314.293C221.153 312.236 222.528 310.634 224.29 309.486C226.063 308.327 228.131 307.748 230.494 307.748C231.858 307.748 233.205 307.975 234.534 308.43C235.864 308.884 237.074 309.623 238.165 310.646C239.256 311.657 240.125 312.998 240.773 314.668C241.421 316.339 241.744 318.396 241.744 320.839V322.543H221.563V319.066H237.653C237.653 317.589 237.358 316.271 236.767 315.111C236.188 313.952 235.358 313.038 234.278 312.367C233.21 311.697 231.949 311.361 230.494 311.361C228.892 311.361 227.506 311.759 226.335 312.555C225.176 313.339 224.284 314.361 223.659 315.623C223.034 316.884 222.722 318.236 222.722 319.68V321.998C222.722 323.975 223.063 325.651 223.744 327.026C224.438 328.39 225.398 329.43 226.625 330.146C227.852 330.85 229.278 331.202 230.903 331.202C231.96 331.202 232.915 331.055 233.767 330.759C234.631 330.452 235.375 329.998 236 329.396C236.625 328.782 237.108 328.021 237.449 327.111L241.335 328.202C240.926 329.521 240.239 330.68 239.273 331.68C238.307 332.668 237.114 333.441 235.693 333.998C234.273 334.543 232.676 334.816 230.903 334.816ZM269.068 334.884C267.409 334.884 265.903 334.572 264.551 333.947C263.199 333.31 262.125 332.396 261.33 331.202C260.534 329.998 260.136 328.543 260.136 326.839C260.136 325.339 260.432 324.123 261.023 323.191C261.614 322.248 262.403 321.509 263.392 320.975C264.381 320.441 265.472 320.043 266.665 319.782C267.869 319.509 269.08 319.293 270.296 319.134C271.886 318.93 273.176 318.776 274.165 318.674C275.165 318.56 275.892 318.373 276.347 318.111C276.813 317.85 277.046 317.396 277.046 316.748V316.611C277.046 314.93 276.585 313.623 275.665 312.691C274.756 311.759 273.375 311.293 271.523 311.293C269.602 311.293 268.097 311.714 267.006 312.555C265.915 313.396 265.148 314.293 264.705 315.248L260.886 313.884C261.568 312.293 262.477 311.055 263.614 310.168C264.761 309.271 266.011 308.646 267.364 308.293C268.727 307.93 270.068 307.748 271.386 307.748C272.227 307.748 273.193 307.85 274.284 308.055C275.386 308.248 276.449 308.651 277.472 309.265C278.506 309.878 279.364 310.805 280.046 312.043C280.727 313.282 281.068 314.941 281.068 317.021V334.271H277.046V330.725H276.841C276.568 331.293 276.114 331.901 275.477 332.549C274.841 333.197 273.994 333.748 272.938 334.202C271.881 334.657 270.591 334.884 269.068 334.884ZM269.682 331.271C271.273 331.271 272.614 330.958 273.705 330.333C274.807 329.708 275.636 328.901 276.193 327.913C276.761 326.924 277.046 325.884 277.046 324.793V321.111C276.875 321.316 276.5 321.503 275.921 321.674C275.352 321.833 274.693 321.975 273.943 322.1C273.205 322.214 272.483 322.316 271.778 322.407C271.085 322.486 270.523 322.555 270.091 322.611C269.046 322.748 268.068 322.969 267.159 323.276C266.261 323.572 265.534 324.021 264.977 324.623C264.432 325.214 264.159 326.021 264.159 327.043C264.159 328.441 264.676 329.498 265.71 330.214C266.756 330.918 268.08 331.271 269.682 331.271ZM298.979 344.634C297.036 344.634 295.365 344.384 293.967 343.884C292.57 343.396 291.405 342.748 290.473 341.941C289.553 341.146 288.82 340.293 288.274 339.384L291.479 337.134C291.842 337.611 292.303 338.157 292.859 338.771C293.416 339.396 294.178 339.935 295.144 340.39C296.121 340.856 297.399 341.089 298.979 341.089C301.092 341.089 302.837 340.577 304.212 339.555C305.587 338.532 306.274 336.93 306.274 334.748V329.43H305.933C305.638 329.907 305.217 330.498 304.672 331.202C304.138 331.896 303.365 332.515 302.354 333.06C301.354 333.594 300.001 333.861 298.297 333.861C296.183 333.861 294.286 333.361 292.604 332.361C290.933 331.361 289.609 329.907 288.632 327.998C287.666 326.089 287.183 323.771 287.183 321.043C287.183 318.361 287.655 316.026 288.598 314.038C289.541 312.038 290.854 310.492 292.536 309.401C294.217 308.299 296.161 307.748 298.365 307.748C300.07 307.748 301.422 308.032 302.422 308.6C303.433 309.157 304.206 309.793 304.74 310.509C305.286 311.214 305.706 311.793 306.001 312.248H306.411V308.089H310.297V335.021C310.297 337.271 309.786 339.1 308.763 340.509C307.751 341.93 306.388 342.969 304.672 343.628C302.967 344.299 301.07 344.634 298.979 344.634ZM298.842 330.248C300.456 330.248 301.82 329.878 302.933 329.14C304.047 328.401 304.894 327.339 305.473 325.952C306.053 324.566 306.342 322.907 306.342 320.975C306.342 319.089 306.058 317.424 305.49 315.981C304.922 314.538 304.081 313.407 302.967 312.589C301.854 311.771 300.479 311.361 298.842 311.361C297.138 311.361 295.717 311.793 294.581 312.657C293.456 313.521 292.609 314.68 292.041 316.134C291.484 317.589 291.206 319.202 291.206 320.975C291.206 322.793 291.49 324.401 292.058 325.799C292.638 327.185 293.49 328.276 294.615 329.072C295.751 329.856 297.161 330.248 298.842 330.248ZM328.638 334.816C326.115 334.816 323.939 334.259 322.109 333.146C320.291 332.021 318.888 330.452 317.899 328.441C316.922 326.418 316.433 324.066 316.433 321.384C316.433 318.702 316.922 316.339 317.899 314.293C318.888 312.236 320.263 310.634 322.024 309.486C323.797 308.327 325.865 307.748 328.229 307.748C329.592 307.748 330.939 307.975 332.269 308.43C333.598 308.884 334.808 309.623 335.899 310.646C336.99 311.657 337.859 312.998 338.507 314.668C339.155 316.339 339.479 318.396 339.479 320.839V322.543H319.297V319.066H335.388C335.388 317.589 335.092 316.271 334.501 315.111C333.922 313.952 333.092 313.038 332.013 312.367C330.945 311.697 329.683 311.361 328.229 311.361C326.626 311.361 325.24 311.759 324.07 312.555C322.911 313.339 322.019 314.361 321.394 315.623C320.769 316.884 320.456 318.236 320.456 319.68V321.998C320.456 323.975 320.797 325.651 321.479 327.026C322.172 328.39 323.132 329.43 324.359 330.146C325.587 330.85 327.013 331.202 328.638 331.202C329.695 331.202 330.649 331.055 331.501 330.759C332.365 330.452 333.109 329.998 333.734 329.396C334.359 328.782 334.842 328.021 335.183 327.111L339.07 328.202C338.661 329.521 337.973 330.68 337.007 331.68C336.041 332.668 334.848 333.441 333.428 333.998C332.007 334.543 330.411 334.816 328.638 334.816ZM349.621 318.521V334.271H345.598V308.089H349.484V312.18H349.825C350.439 310.85 351.371 309.782 352.621 308.975C353.871 308.157 355.484 307.748 357.462 307.748C359.234 307.748 360.786 308.111 362.115 308.839C363.445 309.555 364.479 310.646 365.217 312.111C365.956 313.566 366.325 315.407 366.325 317.634V334.271H362.303V317.907C362.303 315.85 361.769 314.248 360.7 313.1C359.632 311.941 358.166 311.361 356.303 311.361C355.019 311.361 353.871 311.64 352.859 312.197C351.859 312.753 351.07 313.566 350.49 314.634C349.911 315.702 349.621 316.998 349.621 318.521ZM384.313 334.816C381.858 334.816 379.744 334.236 377.972 333.077C376.199 331.918 374.835 330.322 373.881 328.288C372.926 326.253 372.449 323.93 372.449 321.316C372.449 318.657 372.938 316.31 373.915 314.276C374.903 312.231 376.278 310.634 378.04 309.486C379.813 308.327 381.881 307.748 384.244 307.748C386.085 307.748 387.744 308.089 389.222 308.771C390.699 309.452 391.909 310.407 392.852 311.634C393.796 312.861 394.381 314.293 394.608 315.93H390.585C390.278 314.736 389.597 313.68 388.54 312.759C387.494 311.827 386.085 311.361 384.313 311.361C382.744 311.361 381.369 311.771 380.188 312.589C379.017 313.396 378.102 314.538 377.443 316.015C376.796 317.481 376.472 319.202 376.472 321.18C376.472 323.202 376.79 324.964 377.426 326.464C378.074 327.964 378.983 329.128 380.153 329.958C381.335 330.788 382.722 331.202 384.313 331.202C385.358 331.202 386.307 331.021 387.159 330.657C388.011 330.293 388.733 329.771 389.324 329.089C389.915 328.407 390.335 327.589 390.585 326.634H394.608C394.381 328.18 393.818 329.572 392.921 330.81C392.034 332.038 390.858 333.015 389.392 333.742C387.938 334.458 386.244 334.816 384.313 334.816ZM403.08 344.089C402.398 344.089 401.79 344.032 401.256 343.918C400.722 343.816 400.352 343.714 400.148 343.611L401.171 340.066C402.148 340.316 403.011 340.407 403.761 340.339C404.511 340.271 405.176 339.935 405.756 339.333C406.347 338.742 406.886 337.782 407.375 336.452L408.125 334.407L398.443 308.089H402.807L410.034 328.952H410.307L417.534 308.089H421.898L410.784 338.089C410.284 339.441 409.665 340.56 408.926 341.447C408.188 342.344 407.33 343.009 406.352 343.441C405.386 343.873 404.296 344.089 403.08 344.089Z" fill="#424530"/>
</svg>
