<svg width="33" height="27" viewBox="0 0 33 27" fill="none" xmlns="http://www.w3.org/2000/svg">
<path d="M17.8168 24.9441L18.8785 25.989L17.8168 24.9441L29.5541 13.0186C29.5541 13.0185 29.5542 13.0185 29.5542 13.0185C29.5543 13.0183 29.5545 13.0182 29.5546 13.0181C30.8502 11.7 31.5 9.9764 31.5 8.24236C31.5 6.49266 30.8424 4.76086 29.5276 3.4408L29.5269 3.44004C26.9558 0.854893 22.706 0.943333 20.0784 3.61303L17.5707 6.16103L16.5025 7.24629L15.4335 6.16199L12.7769 3.46762L12.7749 3.4656C11.485 2.15236 9.79615 1.5 8.11068 1.5C6.42348 1.5 4.73472 2.15247 3.4449 3.4656L3.44411 3.4664C0.852383 6.10101 0.851501 10.3797 3.44424 13.0185C3.44437 13.0186 3.4445 13.0187 3.44464 13.0189L15.1861 24.9438L15.187 24.9447C15.9145 25.6847 17.0869 25.6857 17.8168 24.9441Z" stroke="#424530" stroke-width="3"/>
</svg>
