<svg width="35" height="27" viewBox="0 0 35 27" fill="none" xmlns="http://www.w3.org/2000/svg">
<path d="M10.8657 22.0728L11.5728 22.4284C13.6141 23.4586 15.9696 24.003 18.3813 24.003C25.5121 24.003 31.3119 19.2921 31.3119 13.5C31.3119 7.70798 25.5121 2.99566 18.3813 2.99566C11.2505 2.99566 5.44898 7.70798 5.44898 13.5C5.44898 15.175 5.92366 16.7796 6.86011 18.2683L7.29943 18.9677L4.16296 23.7113L10.8657 22.0728ZM18.3813 27C15.5672 27 12.8123 26.4217 10.3621 25.3238L4.1614 26.8398C2.90906 27.1459 1.55892 26.8124 0.729911 25.988C-0.0991018 25.1635 -0.233818 24.0252 0.386739 23.0874L3.15279 18.9078C2.22917 17.2003 1.76256 15.3847 1.76256 13.5C1.76256 6.05646 9.21728 1.90735e-06 18.3813 1.90735e-06C27.5454 1.90735e-06 35 6.05646 35 13.5C35 20.9436 27.5454 27 18.3813 27Z" fill="#E2D1C1"/>
</svg>
