<svg width="45" height="45" viewBox="0 0 45 45" fill="none" xmlns="http://www.w3.org/2000/svg">
<path d="M32.664 14.3832C32.6 15.278 32.0893 18.4099 31.5773 21.7979C30.8107 26.5927 29.98 31.8338 29.98 31.8338C29.98 31.8338 29.852 33.3046 28.7654 33.5593C27.6787 33.8156 25.8893 32.6645 25.5693 32.4098C25.3133 32.2182 20.7747 29.3406 19.1133 27.9354C18.6653 27.5515 18.1547 26.7848 19.1773 25.89C21.4787 23.7791 24.2267 21.1594 25.8894 19.4968C26.6561 18.7302 27.4227 16.9406 24.2267 19.114C19.688 22.2458 15.2133 25.1859 15.2133 25.1859C15.2133 25.1859 14.1907 25.826 12.2734 25.2499C10.356 24.6755 8.11868 23.9072 8.11868 23.9072C8.11868 23.9072 6.584 22.9484 9.20534 21.926C9.20534 21.926 20.264 17.3875 24.0987 15.79C25.5694 15.1499 30.5547 13.1047 30.5547 13.1047C30.5547 13.1047 32.856 12.2099 32.664 14.3832ZM22.1174 0.000423431C9.90272 0.000423431 0 9.90309 0 22.1182C0 34.3328 9.90272 44.2354 22.1174 44.2354C34.332 44.2354 44.2347 34.3328 44.2347 22.1182C44.2347 9.90309 34.332 0.000423431 22.1174 0.000423431Z" fill="#E2D1C1"/>
</svg>
