<svg width="40" height="38" viewBox="0 0 40 38" fill="none" xmlns="http://www.w3.org/2000/svg">
<path d="M12.4179 31.0654L13.2261 31.5658C15.559 33.0158 18.251 33.7821 21.0072 33.7821C29.1567 33.7821 35.7851 27.1518 35.7851 19C35.7851 10.8483 29.1567 4.21611 21.0072 4.21611C12.8577 4.21611 6.2274 10.8483 6.2274 19C6.2274 21.3574 6.7699 23.6157 7.84013 25.7109L8.34221 26.6953L4.75767 33.3714L12.4179 31.0654ZM21.0072 38C17.791 38 14.6426 37.1861 11.8425 35.6408L4.75588 37.7745C3.32464 38.2053 1.78163 37.736 0.834184 36.5757C-0.113259 35.4153 -0.267221 33.8132 0.441987 32.4934L3.60318 26.611C2.54762 24.2078 2.01435 21.6525 2.01435 19C2.01435 8.5239 10.534 0 21.0072 0C31.4804 0 40 8.5239 40 19C40 29.4761 31.4804 38 21.0072 38Z" fill="#424530"/>
</svg>
